<?xml version="1.0" standalone="no"?>
<!DOCTYPE svg PUBLIC "-//W3C//DTD SVG 1.1//EN" "http://www.w3.org/Graphics/SVG/1.1/DTD/svg11.dtd" >
<svg>
<metadata>
Created by FontForge 20090914 at Fri Sep 24 19:04:14 2021
 By www-data
Copyright (c) 2005 The Hoefler Type Foundry, Inc., dba Hoefler &#38; Frere-Jones. All Rights Reserved.
</metadata>
<defs>
<font id="GothamProNarrow-Medium" horiz-adv-x="500" >
  <font-face 
    font-family="Gotham Pro Narrow Medium"
    font-weight="500"
    font-stretch="normal"
    units-per-em="1000"
    panose-1="2 0 6 6 3 0 0 2 0 4"
    ascent="800"
    descent="-200"
    x-height="530"
    cap-height="700"
    bbox="-54 -159.286 1059 915"
    underline-thickness="20"
    underline-position="-153"
    unicode-range="U+0020-U+FB04"
  />
<missing-glyph 
d="M0 0v700h500v-700h-500zM81 49h339l-170 255zM49 96l171 254l-171 254v-508zM450 96v508l-171 -254zM250 395l170 255h-339z" />
    <glyph glyph-name="fi" unicode="fi" horiz-adv-x="587" 
d="M519 607h-120v111h120v-111zM319 433l-117 -0.000976562v-433h-113v433h-58v95h58v40c0 52.667 13 92.334 39 119.001s63 40 111 40c32 0 59 -3.66699 81 -11v-95c-18 6 -36.333 9 -55 9c-42.667 0 -64 -24.333 -64 -73v-30h118v-94zM516 -0.000976562h-114v530h114v-530
z" />
    <glyph glyph-name="fl" unicode="fl" horiz-adv-x="587" 
d="M319 433l-117 -0.000976562v-433h-113v433h-58v95h58v40c0 52.667 13 92.334 39 119.001s63 40 111 40c32 0 59 -3.66699 81 -11v-95c-18 6 -36.333 9 -55 9c-42.667 0 -64 -24.333 -64 -73v-30h118v-94zM516 -0.000976562h-114v722h114v-722z" />
    <glyph glyph-name="ffi" unicode="ffi" horiz-adv-x="916" 
d="M848 607h-120v111h120v-111zM531 526h118v-93h-117v-433h-112v433h-59v94h59v41c0 106 50 159 150 159c31.333 0 58 -3.66699 80 -11v-96c-18.667 6.66699 -37 10 -55 10c-42.667 0 -64 -24.333 -64 -73v-31zM201 526l117 -0.000976562v-93h-116v-433h-113v433h-59v94h59
v41c0 52.667 13 92.334 39 119.001s63 40 111 40c31.333 0 58 -3.66699 80 -11v-96c-18.667 6.66699 -36.667 10 -54 10c-42.667 0 -64 -24.333 -64 -73v-31zM845 -0.000976562h-113v530h113v-530z" />
    <glyph glyph-name="ffl" unicode="ffl" horiz-adv-x="916" 
d="M531 526h118v-93h-117v-433h-112v433h-59v94h59v41c0 106 50 159 150 159c31.333 0 58 -3.66699 80 -11v-96c-18.667 6.66699 -37 10 -55 10c-42.667 0 -64 -24.333 -64 -73v-31zM201 526l117 -0.000976562v-93h-116v-433h-113v433h-59v94h59v41
c0 52.667 13 92.334 39 119.001s63 40 111 40c31.333 0 58 -3.66699 80 -11v-96c-18.667 6.66699 -36.667 10 -54 10c-42.667 0 -64 -24.333 -64 -73v-31zM845 -0.000976562h-113v722h113v-722z" />
    <glyph glyph-name=".notdef" 
d="M0 0v700h500v-700h-500zM81 49h339l-170 255zM49 96l171 254l-171 254v-508zM450 96v508l-171 -254zM250 395l170 255h-339z" />
    <glyph glyph-name="space" unicode=" " horiz-adv-x="257" 
 />
    <glyph glyph-name="exclam" unicode="!" horiz-adv-x="277" 
d="M206 665l-37 -448h-61l-36 448v35h134v-35zM202 0h-127v132h127v-132z" />
    <glyph glyph-name="quotedbl" unicode="&#x22;" horiz-adv-x="435" 
d="M395 694l-87 -292h-54l15 298h126v-6zM198 694l-87 -292h-55l17 298h125v-6z" />
    <glyph glyph-name="numbersign" unicode="#" horiz-adv-x="605" 
d="M571 442h-94l-25 -180h89v-98h-104l-23 -164h-94l23 164h-137l-24 -164h-94l24 164h-79v98h93l26 180h-88v98h103l23 160h94l-23 -160h138l22 160h94l-23 -160h79v-98zM384 442h-138l-25 -180h137z" />
    <glyph glyph-name="dollar" unicode="$" horiz-adv-x="554" 
d="M322 -100l-80 0.000976562v100c-72 6.66699 -137.667 32.667 -197 78l45 94c56 -42.667 109.667 -67 161 -73v205c-66.667 26 -115 54.5 -145 85.5s-45 72.5 -45 124.5v1c0 50.667 16.667 92.667 50 126s77 53.333 131 60v61h80v-61c56 -6 109.333 -26.667 160 -62
l-40 -96c-46 31.333 -89 50.333 -129 57v-195c73.333 -30.667 124 -61.667 152 -93s42 -72.333 42 -123v-1c0 -50.667 -17.167 -92.834 -51.5 -126.501s-78.833 -54.167 -133.5 -61.5v-100zM401 184.001c0 22 -6.33301 40.333 -19 55s-35.667 29 -69 43v-184
c58.667 8 88 36.333 88 85v1zM168 522.001c0 -22 5.83301 -39.833 17.5 -53.5s33.5 -27.167 65.5 -40.5v173c-27.333 -3.33301 -48 -12 -62 -26s-21 -31.667 -21 -53z" />
    <glyph glyph-name="percent" unicode="%" horiz-adv-x="760" 
d="M339 525c0 -50.667 -13.833 -92.667 -41.5 -126s-63.5 -50 -107.5 -50c-43.333 0 -78.833 16.5 -106.5 49.5s-41.5 74.5 -41.5 124.5v8c0 50.667 13.833 92.667 41.5 126s63.5 50 107.5 50c43.333 0 78.833 -16.667 106.5 -50s41.5 -75 41.5 -125v-7zM651 700l-454 -700
h-88l454 700h88zM718 169c0 -50.667 -14.001 -92.667 -42.001 -126s-64 -50 -108 -50c-43.333 0 -78.666 16.5 -105.999 49.5s-41 74.833 -41 125.5v7c0 50.667 13.833 92.667 41.5 126s63.5 50 107.5 50c43.333 0 78.833 -16.5 106.5 -49.5s41.5 -74.5 41.5 -124.5v-8z
M255.999 524v6.00098c0 30.667 -6.16699 55.5 -18.5 74.5s-28.166 28.5 -47.499 28.5c-20 0 -35.833 -9.16699 -47.5 -27.5s-17.5 -42.833 -17.5 -73.5v-7c0 -30.667 6.16699 -55.334 18.5 -74.001s28.166 -28 47.499 -28c20 0 35.833 9.16699 47.5 27.5
s17.5 42.833 17.5 73.5zM634.999 168.001l0.000976562 6.99902c0 30.667 -6.16699 55.334 -18.5 74.001s-28.5 28 -48.5 28c-19.333 0 -34.833 -9.16699 -46.5 -27.5s-17.5 -42.833 -17.5 -73.5v-6c0 -30.667 6.16699 -55.5 18.5 -74.5s28.166 -28.5 47.499 -28.5
c20 0 35.833 9.16699 47.5 27.5s17.5 42.833 17.5 73.5z" />
    <glyph glyph-name="ampersand" unicode="&#x26;" horiz-adv-x="616" 
d="M593 46l-85 -59l-77 89c-56 -57.333 -119.333 -86 -190 -86c-60 0 -109.833 18 -149.5 54s-59.5 83 -59.5 141v3c0 84.667 46 151.667 138 201c-39.333 56 -59 106.667 -59 152v3c0 46 16.667 85.333 50 118s77.333 49 132 49c50 0 90.667 -15.333 122 -46
s47 -69 47 -115v-3c0 -78.667 -46.333 -140.334 -139 -185.001l108 -129c20 34.667 39.667 77.334 59 128.001l88 -38c-23.333 -64 -50.333 -119.667 -81 -167zM360 541v4c0 22 -6.5 39.833 -19.5 53.5s-29.833 20.5 -50.5 20.5c-22 0 -39.833 -7.33301 -53.5 -22
s-20.5 -33 -20.5 -55v-4c0 -30 16.667 -66.667 50 -110c62.667 30 94 67.667 94 113zM369 146l-139.001 169.001c-54.667 -30.667 -82 -71.334 -82 -122.001v-3c0 -30 9.83301 -54.667 29.5 -74s44.834 -29 75.501 -29c40 0 78.667 19.667 116 59z" />
    <glyph glyph-name="quotesingle" unicode="'" horiz-adv-x="238" 
d="M199 694l-87 -292h-56l17 298h126v-6z" />
    <glyph glyph-name="parenleft" unicode="(" horiz-adv-x="393" 
d="M352 -63l-37 -77c-172 86.667 -258 229.334 -258 428.001c0 197.333 86 339.666 258 426.999l37 -78c-122 -80.667 -183 -197 -183 -349c0 -78 15 -145.5 45 -202.5s76 -106.5 138 -148.5z" />
    <glyph glyph-name="parenright" unicode=")" horiz-adv-x="393" 
d="M336 288c0 -199.333 -86.001 -342.002 -258.001 -428.002l-37 77c62.667 42 108.834 91.333 138.501 148s44.5 124.334 44.5 203.001c0 152.667 -61 269 -183 349l37 78c172 -87.333 258 -229.666 258 -426.999z" />
    <glyph glyph-name="asterisk" unicode="*" horiz-adv-x="390" 
d="M343 498l-35 -60l-93 71l15 -119h-70l15 119l-93 -71l-35 60l107 47l-107 47l35 61l93 -71l-15 119h70l-15 -119l93 71l35 -61l-107 -47z" />
    <glyph glyph-name="plus" unicode="+" horiz-adv-x="577" 
d="M519 300h-177v-182h-108v182h-177v104h177v182h108v-182h177v-104z" />
    <glyph glyph-name="comma" unicode="," horiz-adv-x="249" 
d="M188 21c0 -52 -12.167 -91.333 -36.5 -118s-60.833 -42.667 -109.5 -48l-11 49c58.667 11.333 85.667 43.333 81 96h-52v132h128v-111z" />
    <glyph glyph-name="hyphen" unicode="-" horiz-adv-x="381" 
d="M329 250h-278v112h278v-112z" />
    <glyph glyph-name="period" unicode="." horiz-adv-x="249" 
d="M188 0h-128v132h128v-132z" />
    <glyph glyph-name="slash" unicode="/" horiz-adv-x="454" 
d="M459 789l-381 -908h-97l381 908h97z" />
    <glyph glyph-name="zero" unicode="0" horiz-adv-x="624" 
d="M574 345c0 -106.667 -23.834 -192.667 -71.501 -258s-111.5 -98 -191.5 -98c-79.333 0 -142.666 32.333 -189.999 97s-71 150.667 -71 258v11c0 107.333 23.833 193.5 71.5 258.5s111.167 97.5 190.5 97.5c80 0 143.667 -32.5 191 -97.5s71 -150.833 71 -257.5v-11z
M455.999 344v10c0 78 -13.167 139.667 -39.5 185s-61.5 68 -105.5 68s-78.833 -22.167 -104.5 -66.5s-38.5 -105.833 -38.5 -184.5v-10c0 -78.667 13 -140.5 39 -185.5s61 -67.5 105 -67.5s79 22.333 105 67s39 106 39 184z" />
    <glyph glyph-name="one" unicode="1" horiz-adv-x="350" 
d="M267 0h-115v584l-110 -33l-18 100l161 53h82v-704z" />
    <glyph glyph-name="two" unicode="2" horiz-adv-x="527" 
d="M479 0h-437.001v92l208 231c40 42 67.667 75.833 83 101.5s23 52.167 23 79.5c0 30 -9.33301 54 -28 72s-42.667 27 -72 27c-27.333 0 -51.833 -6.66699 -73.5 -20s-44.5 -34.333 -68.5 -63l-61 78c30 37.333 61.333 65 94 83s72.667 27 120 27
c62.667 0 112.834 -17.5 150.501 -52.5s56.5 -81.5 56.5 -139.5v-3c0 -44 -10.5 -83 -31.5 -117s-58.5 -77.333 -112.5 -130l-135 -161h284v-105z" />
    <glyph glyph-name="three" unicode="3" horiz-adv-x="530" 
d="M479 210c0 -64.667 -21.001 -117.5 -63.001 -158.5s-96.333 -61.5 -163 -61.5c-88.667 0 -161 30.333 -217 91l60 84c45.333 -46.667 97 -70 155 -70c32.667 0 59.834 10.167 81.501 30.5s32.5 46.833 32.5 79.5v4c0 36 -13.333 63.333 -40 82s-64 28.667 -112 30h-39
l-15 73l169 202h-263v104h406v-90l-174 -203c54 -8.66699 97.833 -28.5 131.5 -59.5s50.5 -75.167 50.5 -132.5v-5z" />
    <glyph glyph-name="four" unicode="4" horiz-adv-x="590" 
d="M549 151h-87v-151h-110v151h-306l-15 85l329 468h102v-457h87v-96zM352 247v285l-195 -285h195z" />
    <glyph glyph-name="five" unicode="5" horiz-adv-x="536" 
d="M487 225c0 -71.333 -21.668 -128.333 -65.001 -171s-100.666 -64 -171.999 -64c-79.333 0 -148 26.667 -206 80l53 91c49.333 -42.667 99.333 -64 150 -64c38 0 68.5 11.333 91.5 34s34.5 53 34.5 91v4c0 37.333 -11.333 66.166 -34 86.499s-53 30.5 -91 30.5
c-36 0 -71.333 -8.66699 -106 -26l-67 45l19 338h364v-105h-268l-10 -166c28.667 10.667 59.667 16 93 16c62.667 0 114 -18.167 154 -54.5s60 -90.166 60 -161.499v-4z" />
    <glyph glyph-name="six" unicode="6" horiz-adv-x="570" 
d="M522 227c0 -70 -21.667 -127.165 -65 -171.498s-98 -66.5 -164 -66.5c-66.667 0 -120.334 20.333 -161.001 61c-27.333 27.333 -47.666 62.166 -60.999 104.499s-20 98.833 -20 169.5v6c0 119.333 23.167 212.5 69.5 279.5s112.166 100.5 197.499 100.5
c63.333 0 121 -19.667 173 -59l-47 -96c-42 33.333 -84.333 50 -127 50c-45.333 0 -81.166 -20 -107.499 -60s-40.166 -94 -41.499 -162c39.333 42.667 87.666 64 144.999 64c60 0 109.833 -18.833 149.5 -56.5s59.5 -90.834 59.5 -159.501v-4zM409 222.002v4
c0 38 -10.833 68.167 -32.5 90.5s-50.167 33.5 -85.5 33.5c-36.667 0 -65.667 -11.333 -87 -34c-22 -22 -33 -52 -33 -90v-5c0 -40 11 -71.833 33 -95.5s51.333 -35.5 88 -35.5c36 0 64.5 12 85.5 36s31.5 56 31.5 96z" />
    <glyph glyph-name="seven" unicode="7" horiz-adv-x="521" 
d="M477 614l-261 -614h-125l260 595h-297v105h423v-86z" />
    <glyph glyph-name="eight" unicode="8" horiz-adv-x="550" 
d="M508 192c0 -61.333 -21.833 -110.332 -65.5 -146.999s-99.834 -55 -168.501 -55c-67.333 0 -123 18.333 -167 55s-66 85 -66 145v4c0 79.333 37.667 136.333 113 171c-62 35.333 -93 87 -93 155v4c0 54 20.333 98.5 61 133.5s91.334 52.5 152.001 52.5
c61.333 0 112.333 -17.5 153 -52.5s61 -79.5 61 -133.5v-4c0 -68.667 -31 -120.334 -93 -155.001c75.333 -36 113 -92.333 113 -169v-4zM378 510.001v2.99902c0 30 -9.5 54.5 -28.5 73.5s-44.167 28.5 -75.5 28.5c-30.667 0 -55.5 -9.33301 -74.5 -28s-28.5 -43 -28.5 -73
v-3c0 -31.333 9.66699 -57.166 29 -77.499s44 -30.5 74 -30.5c30.667 0 55.667 9.83301 75 29.5s29 45.5 29 77.5zM395 197l0.00195312 4c0 34 -11.333 60.833 -34 80.5s-51.667 29.5 -87 29.5c-34.667 0 -63.334 -9.83301 -86.001 -29.5s-34 -46.5 -34 -80.5v-4
c0 -33.333 10.667 -60.166 32 -80.499s50.666 -30.5 87.999 -30.5s66.833 10.167 88.5 30.5s32.5 47.166 32.5 80.499z" />
    <glyph glyph-name="nine" unicode="9" horiz-adv-x="570" 
d="M521 370c0 -120 -23.666 -213.332 -70.999 -279.999s-113 -100 -197 -100c-65.333 0 -126.333 21 -183 63l47 96c45.333 -36 90.666 -54 135.999 -54s81.166 19.667 107.499 59s40.166 92 41.499 158c-37.333 -44 -85 -66 -143 -66
c-61.333 0 -111.666 19.167 -150.999 57.5s-59 92.166 -59 161.499v5c0 70.667 21.5 128.5 64.5 173.5s97.833 67.5 164.5 67.5s120.334 -20.333 161.001 -61c54.667 -54.667 82 -146 82 -274v-6zM400.001 471.001v5.00098c0 40.667 -11 73.167 -33 97.5
s-51.333 36.5 -88 36.5c-36 0 -64.333 -12.333 -85 -37s-31 -57.334 -31 -98.001v-4c0 -39.333 10.833 -70.5 32.5 -93.5s49.834 -34.5 84.501 -34.5c33.333 0 61.666 11 84.999 33c23.333 23.333 35 55 35 95z" />
    <glyph glyph-name="colon" unicode=":" horiz-adv-x="259" 
d="M193 397h-128v133h128v-133zM193 0h-128v132h128v-132z" />
    <glyph glyph-name="semicolon" unicode=";" horiz-adv-x="259" 
d="M193 397h-128v133h128v-133zM193 21c0 -52 -12.167 -91.333 -36.5 -118s-60.833 -42.667 -109.5 -48l-11 49c58.667 11.333 85.667 43.333 81 96h-52v132h128v-111z" />
    <glyph glyph-name="less" unicode="&#x3c;" horiz-adv-x="556" 
d="M479 83l-421 215v108l421 215v-115l-311 -153l311 -154v-116z" />
    <glyph glyph-name="equal" unicode="=" horiz-adv-x="590" 
d="M514 419h-438v107h438v-107zM514 178h-438v107h438v-107z" />
    <glyph glyph-name="greater" unicode="&#x3e;" horiz-adv-x="556" 
d="M497 298l-420 -215v115l311 153l-311 154v116l420 -215v-108z" />
    <glyph glyph-name="question" unicode="?" horiz-adv-x="474" 
d="M438 509c0 -102.667 -59 -167.999 -177 -195.999l-10 -96h-76l-16 166l4 5c107.333 10 161 49.333 161 118v2c0 28 -9.66699 50.667 -29 68s-45.333 26 -78 26c-50.667 0 -97.667 -20.667 -141 -62l-52 82c56 57.333 122.667 86 200 86c64 0 115.667 -17.833 155 -53.5
s59 -82.834 59 -141.501v-4zM277 0.000976562h-128v132h128v-132z" />
    <glyph glyph-name="at" unicode="@" horiz-adv-x="878" 
d="M830 342c0 -82 -17.498 -148.169 -52.498 -198.502s-78.833 -75.5 -131.5 -75.5c-66.667 0 -110.334 25.333 -131.001 76c-39.333 -50 -86 -75 -140 -75c-43.333 0 -79.5 15.333 -108.5 46s-43.5 71.334 -43.5 122.001c0 72.667 20.667 135.667 62 189
s88.666 80 141.999 80c54.667 0 95 -24.667 121 -74l12 62l92 -16l-45 -252c-3.33301 -15.333 -5 -32.333 -5 -51c0 -19.333 5.66699 -34.666 17 -45.999s27 -17 47 -17c34.667 0 64 21.5 88 64.5s36 98.5 36 166.5c0 88.667 -32.333 166 -97 232s-145.334 99 -242.001 99
c-104 0 -190.833 -41.5 -260.5 -124.5s-104.5 -181.167 -104.5 -294.5c-0.666992 -108 32.333 -197 99 -267s151.667 -105 255 -105c77.333 0 149.333 19.667 216 59l19 -30c-73.333 -44 -152 -66 -236 -66c-112.667 0 -206.167 38.667 -280.5 116
s-111.5 175.333 -111.5 294c0 80.667 17.333 155.667 52 225s83.167 125 145.5 167s131.5 63 207.5 63c106.667 0 196.334 -36.5 269.001 -109.5s109 -159.5 109 -259.5zM527.002 327.998c0 28.667 -7.83398 51.666 -23.501 68.999s-36.167 26 -61.5 26
s-48.666 -10.5 -69.999 -31.5s-36 -48.5 -44 -82.5c-6 -27.333 -9 -49.333 -9 -66c0 -29.333 7.83301 -52.333 23.5 -69s36.167 -25 61.5 -25s49 11.333 71 34s37 51.334 45 86.001c4.66699 19.333 7 39 7 59z" />
    <glyph glyph-name="A" unicode="A" horiz-adv-x="674" 
d="M25 0l256 704h112l256 -704h-120l-59 165h-270l-59 -165h-116zM235 268h199l-99 281z" />
    <glyph glyph-name="B" unicode="B" horiz-adv-x="623" 
d="M77 0v700h249c68 0 122.5 -16 163.5 -48s61.5 -76.333 61.5 -133c0 -72.667 -34.333 -125 -103 -157c88.667 -31.333 133 -87 133 -167c0 -62 -22.5 -110 -67.5 -144s-105.5 -51 -181.5 -51h-255zM190 103h146c40.667 0 72.5 8.66699 95.5 26s34.5 42 34.5 74
s-11.667 56.833 -35 74.5s-57 26.5 -101 26.5h-140v-201zM190 402l121 -0.000976562c38.667 0 69.167 8.5 91.5 25.5s33.5 41.5 33.5 73.5c0 30.667 -10.333 54.334 -31 71.001s-49.667 25 -87 25h-128v-195z" />
    <glyph glyph-name="C" unicode="C" horiz-adv-x="617" 
d="M356 -10c-88 0 -160.999 33 -218.999 99s-87 151.333 -87 256v9c0 104.667 29.333 190.167 88 256.5s133.334 99.5 224.001 99.5c83.333 0 154.666 -27 213.999 -81l-55 -94c-51.333 44.667 -103.666 67 -156.999 67c-56.667 0 -103 -22.5 -139 -67.5
s-54 -104.833 -54 -179.5v-9c0 -75.333 18 -135.5 54 -180.5s82.667 -67.5 140 -67.5c31.333 0 59.166 5.66699 83.499 17s50.166 29 77.499 53l55 -85c-63.333 -62 -138.333 -93 -225 -93z" />
    <glyph glyph-name="D" unicode="D" horiz-adv-x="672" 
d="M77 0v700.001h213c98.667 0 178.667 -31.833 240 -95.5s92 -146.834 92 -249.501v-9c0 -102.667 -30.667 -186 -92 -250s-141.333 -96 -240 -96h-213zM192 105.001l101 -0.000976562c62.667 0 113.167 21.333 151.5 64s57.5 101.334 57.5 176.001v9
c0 74 -19.167 132.667 -57.5 176s-88.833 65 -151.5 65h-101v-490z" />
    <glyph glyph-name="E" unicode="E" horiz-adv-x="568" 
d="M77 0v700h440v-105h-325v-190h288v-105h-288v-195h329v-105h-444z" />
    <glyph glyph-name="F" unicode="F" horiz-adv-x="553" 
d="M77 0v700h437v-107h-322v-197h286v-106h-286v-290h-115z" />
    <glyph glyph-name="G" unicode="G" horiz-adv-x="670" 
d="M370 -10c-94.667 0 -171.668 32.499 -231.001 97.499s-89 150.833 -89 257.5v9c0 102.667 30.167 187.667 90.5 255s136.833 101 229.5 101c83.333 0 155.333 -24 216 -72l-54 -97c-50 40.667 -104.667 61 -164 61c-56.667 0 -103.667 -23.167 -141 -69.5
s-56 -105.166 -56 -176.499v-10c0 -77.333 18.667 -138.333 56 -183s86.333 -67 147 -67c46.667 0 88.334 12.333 125.001 37v154h-148v102h257v-314c-70.667 -56.667 -150 -85 -238 -85z" />
    <glyph glyph-name="H" unicode="H" horiz-adv-x="659" 
d="M77 0v700h115v-294h275v294h115v-700h-115v298h-275v-298h-115z" />
    <glyph glyph-name="I" unicode="I" horiz-adv-x="281" 
d="M82 0v700h116v-700h-116z" />
    <glyph glyph-name="J" unicode="J" horiz-adv-x="475" 
d="M198 -9c-72.667 0 -131.666 27 -176.999 81l56 89c33.333 -40.667 71.666 -61 114.999 -61c30 0 53.667 10 71 30s26 49.333 26 88v482h119v-486c0 -72.667 -19 -128 -57 -166s-89 -57 -153 -57z" />
    <glyph glyph-name="K" unicode="K" horiz-adv-x="627" 
d="M77 0v700h115v-343l270 343h140l-243 -301l254 -399h-138l-196 306l-87 -104v-202h-115z" />
    <glyph glyph-name="L" unicode="L" horiz-adv-x="522" 
d="M77 0v700h115v-593h300v-107h-415z" />
    <glyph glyph-name="M" unicode="M" horiz-adv-x="753" 
d="M77 0v700h121l178 -321l179 321h122v-700h-114v495l-186 -324h-3l-185 322v-493h-112z" />
    <glyph glyph-name="N" unicode="N" horiz-adv-x="681" 
d="M77 0v700h107l307 -466v466h114v-700h-99l-316 481v-481h-113z" />
    <glyph glyph-name="O" unicode="O" horiz-adv-x="720" 
d="M359 -11c-90.667 0 -164.833 33.167 -222.5 99.5s-86.5 151.5 -86.5 255.5v10c0 104 29 189.5 87 256.5s132.667 100.5 224 100.5c90.667 0 164.667 -33.167 222 -99.5s86 -151.5 86 -255.5v-10c0 -104 -29 -189.5 -87 -256.5s-132.333 -100.5 -223 -100.5zM361.001 96
c56 0 101.5 22.667 136.5 68s52.5 105.333 52.5 180v10c0 75.333 -17.833 135.833 -53.5 181.5s-81.5 68.5 -137.5 68.5c-55.333 0 -100.5 -22.667 -135.5 -68s-52.5 -105.333 -52.5 -180v-10c0 -75.333 17.667 -135.833 53 -181.5s81 -68.5 137 -68.5z" />
    <glyph glyph-name="P" unicode="P" horiz-adv-x="582" 
d="M77 0v700.001h223c76.667 0 137.667 -20.833 183 -62.5s68 -98.834 68 -171.501c0 -75.333 -24.167 -134 -72.5 -176s-110.5 -63 -186.5 -63h-100v-227h-115zM192 332.001l103 0.000976562c42.667 0 76.667 11.833 102 35.5s38 55.5 38 95.5
c0 43.333 -12.333 76.166 -37 98.499s-58.667 33.5 -102 33.5h-104v-263z" />
    <glyph glyph-name="Q" unicode="Q" horiz-adv-x="721" 
d="M611 -20l-72.999 69c-50 -40 -109.667 -60 -179 -60c-90.667 0 -164.834 33.167 -222.501 99.5s-86.5 151.5 -86.5 255.5v10c0 104 29 189.5 87 256.5s132.667 100.5 224 100.5c90.667 0 164.667 -33.167 222 -99.5s86 -151.5 86 -255.5v-10
c0 -86.667 -20.333 -160.667 -61 -222l74 -66zM363.001 95c35.333 0 67.001 9.33203 95.001 27.999l-104 92l71 78l95 -89c20 38.667 30 85.334 30 140.001v10c0 75.333 -17.833 135.833 -53.5 181.5s-81.5 68.5 -137.5 68.5c-55.333 0 -100.5 -22.667 -135.5 -68
s-52.5 -105.333 -52.5 -180v-10c0 -76.667 17.667 -137.667 53 -183s81.666 -68 138.999 -68z" />
    <glyph glyph-name="R" unicode="R" horiz-adv-x="625" 
d="M77 0v700h251c76 0 136 -19.5 180 -58.5s66 -93.833 66 -164.5c0 -52 -13 -95.333 -39 -130s-61.333 -60 -106 -76l164 -271h-134l-148 247h-38h-81v-247h-115zM192 350l131 0.000976562c41.333 0 74 10.833 98 32.5s36 52.5 36 92.5c0 39.333 -12 69.166 -36 89.499
s-57.333 30.5 -100 30.5h-129v-245z" />
    <glyph glyph-name="S" unicode="S" horiz-adv-x="547" 
d="M280 -9c-90.667 0 -171.337 29.333 -242.004 88l52 92c62.667 -50 125.667 -75 189 -75c32.667 0 58.834 7.5 78.501 22.5s29.5 35.833 29.5 62.5c0 24 -8.83301 44.333 -26.5 61s-53.167 36.334 -106.5 59.001c-72 30.667 -123 60.667 -153 90s-45 71 -45 125
c0 56.667 20.333 103 61 139s92.334 54 155.001 54c78.667 0 148.334 -22.667 209.001 -68l-46 -97c-57.333 40 -111.666 60 -162.999 60c-30.667 0 -55 -7.5 -73 -22.5s-27 -34.167 -27 -57.5c0 -25.333 9 -46 27 -62s55 -35.667 111 -59c70 -30 119.667 -60.333 149 -91
s44 -71.667 44 -123c0 -60.667 -20.833 -108.834 -62.5 -144.501s-95.167 -53.5 -160.5 -53.5z" />
    <glyph glyph-name="T" unicode="T" horiz-adv-x="549" 
d="M217 0v592h-184v108h483v-108h-183v-592h-116z" />
    <glyph glyph-name="U" unicode="U" horiz-adv-x="655" 
d="M327 -10c-80 0 -143.166 23.665 -189.499 70.998s-69.5 116 -69.5 206v433h115v-433c0 -55.333 12.833 -97.666 38.5 -126.999s61.167 -44 106.5 -44s80.666 14.333 105.999 43s38 70.334 38 125.001v436h115v-430c0 -91.333 -23.333 -160.833 -70 -208.5
s-110 -71.5 -190 -71.5z" />
    <glyph glyph-name="V" unicode="V" horiz-adv-x="640" 
d="M266 -4l-241 704h125l172 -529l172 529h122l-243 -704h-107z" />
    <glyph glyph-name="W" unicode="W" horiz-adv-x="961" 
d="M233 -4l-203 704h123l136 -508l143 509h100l143 -509l136 508h120l-204 -704h-104l-143 494l-143 -494h-104z" />
    <glyph glyph-name="X" unicode="X" horiz-adv-x="625" 
d="M30 0l214 358l-205 342h132l143 -243l143 243h129l-204 -341l213 -359h-132l-152 260l-152 -260h-129z" />
    <glyph glyph-name="Y" unicode="Y" horiz-adv-x="614" 
d="M249 0v279l-235 421h132l162 -302l163 302h128l-234 -420v-280h-116z" />
    <glyph glyph-name="Z" unicode="Z" horiz-adv-x="594" 
d="M53 0v86l344 511h-332v103h477v-86l-344 -511h344v-103h-489z" />
    <glyph glyph-name="bracketleft" unicode="[" horiz-adv-x="402" 
d="M351 -130h-269v830h269v-86h-162v-658h162v-86z" />
    <glyph glyph-name="backslash" unicode="\" horiz-adv-x="454" 
d="M472 -119h-97l-381 908h98z" />
    <glyph glyph-name="bracketright" unicode="]" horiz-adv-x="402" 
d="M320 -130h-269v86h162v658h-162v86h269v-830z" />
    <glyph glyph-name="asciicircum" unicode="^" horiz-adv-x="483" 
d="M411 499h-85l-85 129l-86 -129h-83l128 199h83z" />
    <glyph glyph-name="underscore" unicode="_" horiz-adv-x="557" 
d="M558 -158h-559v88h559v-88z" />
    <glyph glyph-name="grave" unicode="`" horiz-adv-x="502" 
d="M336 593h-83l-117 117l100 46z" />
    <glyph glyph-name="a" unicode="a" horiz-adv-x="516" 
d="M198 -10c-46 0 -84.833 14.499 -116.5 43.499s-47.5 68.167 -47.5 117.5v6c0 55.333 17.167 97.5 51.5 126.5s80.5 43.5 138.5 43.5c43.333 0 84 -7 122 -21v21c0 72.667 -38.667 109 -116 109c-40.667 0 -85 -10 -133 -30l-22 93c53.333 24.667 110.666 37 171.999 37
c68.667 0 120.834 -17.667 156.501 -53s53.5 -86.666 53.5 -153.999v-329h-111v65c-36.667 -50 -86 -75 -148 -75zM232 74.999c33.333 0 60.833 9.49902 82.5 28.499s32.5 43.5 32.5 73.5v54c-28.667 12.667 -61.667 19 -99 19c-32.667 0 -58 -7.66699 -76 -23
s-27 -36.666 -27 -63.999v-6c0 -26 8 -46.167 24 -60.5s37 -21.5 63 -21.5z" />
    <glyph glyph-name="b" unicode="b" horiz-adv-x="584" 
d="M333 -10c-60 0 -111.668 30 -155.001 90v-80h-113v722h113v-277c40.667 63.333 92.334 95 155.001 95c58 0 107.167 -23.5 147.5 -70.5s60.5 -112.833 60.5 -197.5v-14c0 -84.667 -20.167 -150.5 -60.5 -197.5s-89.5 -70.5 -147.5 -70.5zM302.999 90
c35.333 0 65 15.333 89 46s36 71.667 36 123v11c0 51.333 -12 92.5 -36 123.5s-53.667 46.5 -89 46.5s-65.166 -15.667 -89.499 -47s-36.5 -72.333 -36.5 -123v-11c0 -50.667 12.167 -91.5 36.5 -122.5s54.166 -46.5 89.499 -46.5z" />
    <glyph glyph-name="c" unicode="c" horiz-adv-x="486" 
d="M281 -11c-69.333 0 -126.666 25.332 -171.999 75.999s-68 115.334 -68 194.001v9c0 78.667 23 143.5 69 194.5s103.667 76.5 173 76.5c66.667 0 122.667 -22.667 168 -68l-52 -86c-36.667 35.333 -74.667 53 -114 53c-37.333 0 -68.333 -15.5 -93 -46.5
s-37 -71.5 -37 -121.5v-10c0 -51.333 12.5 -92.333 37.5 -123s57.5 -46 97.5 -46c39.333 0 77.333 17.333 114 52l50 -79c-48.667 -50 -106.334 -75 -173.001 -75z" />
    <glyph glyph-name="d" unicode="d" horiz-adv-x="584" 
d="M251 -10c-57.333 0 -106.332 23.5 -146.999 70.5s-61 112.833 -61 197.5v13c0 84.667 20.167 150.667 60.5 198s89.5 71 147.5 71c61.333 0 113 -30 155 -90v272h113v-722h-113v85c-40.667 -63.333 -92.334 -95 -155.001 -95zM282.001 90
c34.667 0 64.334 15.5 89.001 46.5s37 71.833 37 122.5v11c0 50.667 -12.333 91.667 -37 123s-54.334 47 -89.001 47c-36 0 -65.833 -15.333 -89.5 -46s-35.5 -72 -35.5 -124v-10c0 -51.333 12 -92.5 36 -123.5s53.667 -46.5 89 -46.5z" />
    <glyph glyph-name="e" unicode="e" horiz-adv-x="529" 
d="M284 -11c-70 0 -128.166 24.668 -174.499 74.001s-69.5 114.666 -69.5 195.999v8c0 79.333 21.5 144.5 64.5 195.5s97.5 76.5 163.5 76.5c70 0 124.333 -25.833 163 -77.5s58 -118.5 58 -200.5c0 -18 -0.333008 -31.333 -1 -40h-334
c5.33301 -44 20.166 -77.667 44.499 -101s54.166 -35 89.499 -35c46.667 0 89.334 18.333 128.001 55l53 -71c-50 -53.333 -111.667 -80 -185 -80zM153.001 300.001h225c-2.66699 43.333 -13.667 78.333 -33 105s-45 40 -77 40c-31.333 0 -57.333 -12.833 -78 -38.5
s-33 -61.167 -37 -106.5z" />
    <glyph glyph-name="f" unicode="f" horiz-adv-x="332" 
d="M89 0v432.999h-58v94h58v41c0 52.667 13 92.334 39 119.001s63 40 111 40c32 0 59 -3.66699 81 -11v-95c-18 6 -36.333 9 -55 9c-42.667 0 -64 -24.333 -64 -73v-30h118v-94h-117v-433h-113z" />
    <glyph glyph-name="g" unicode="g" horiz-adv-x="584" 
d="M267 -153c-70.667 0 -137 16.333 -199 49l31 91c56 -30.667 110.667 -46 164 -46c96 0 144 46.667 144 140v51c-44.667 -62.667 -98 -94 -160 -94c-56.667 0 -104.834 22 -144.501 66s-59.5 105 -59.5 183v4c0 78 19.833 139 59.5 183s87.834 66 144.501 66
c62 0 115 -29.667 159 -89v79h113v-443c0 -160 -84 -240 -252 -240zM408 288c0 46 -12.335 83.001 -37.002 111.001s-55 42 -91 42c-35.333 0 -64.666 -13.833 -87.999 -41.5s-35 -64.834 -35 -111.501c0 -45.333 11.833 -81.833 35.5 -109.5s52.834 -41.5 87.501 -41.5
c36 0 66.333 13.833 91 41.5s37 64.167 37 109.5z" />
    <glyph glyph-name="h" unicode="h" horiz-adv-x="548" 
d="M65 0l0.000976562 722.001h113v-270c38.667 58.667 87 88 145 88c52 0 92.5 -16.833 121.5 -50.5s43.5 -78.834 43.5 -135.501v-354h-114v323c0 36.667 -8.16699 65 -24.5 85s-39.5 30 -69.5 30c-30.667 0 -55.334 -10.667 -74.001 -32s-28 -50 -28 -86v-320h-113z" />
    <glyph glyph-name="i" unicode="i" horiz-adv-x="255" 
d="M70 0v530h114v-530h-114zM68 607v111h120v-111h-120z" />
    <glyph glyph-name="j" unicode="j" horiz-adv-x="257" 
d="M42 -154c-16 0 -33.333 1.66699 -52 5v91c9.33301 -2 18.333 -3 27 -3c36.667 0 55 21 55 63v528h113v-537c0 -98 -47.667 -147 -143 -147zM68 607v111h121v-111h-121z" />
    <glyph glyph-name="k" unicode="k" horiz-adv-x="513" 
d="M65 0v722h113v-426l183 234h134l-176 -216l181 -314h-130l-130 227l-62 -75v-152h-113z" />
    <glyph glyph-name="l" unicode="l" horiz-adv-x="255" 
d="M70 0v722h114v-722h-114z" />
    <glyph glyph-name="m" unicode="m" horiz-adv-x="840" 
d="M65 0l0.000976562 530.001h113v-77c38 58 85.667 87 143 87c64 0 110 -28.667 138 -86c42 57.333 93.667 86 155 86c50 0 89.833 -16.333 119.5 -49s44.5 -78 44.5 -136v-355h-114v323c0 36.667 -7.83301 65 -23.5 85s-37.5 30 -65.5 30
c-29.333 0 -52.833 -10.333 -70.5 -31s-26.5 -49.334 -26.5 -86.001v-321h-113v323c0 36.667 -7.83301 65 -23.5 85s-38.167 30 -67.5 30c-28.667 0 -51.834 -10.667 -69.501 -32s-26.5 -50 -26.5 -86v-320h-113z" />
    <glyph glyph-name="n" unicode="n" horiz-adv-x="548" 
d="M65 0l0.000976562 530.001h113v-78c38.667 58.667 87 88 145 88c52 0 92.5 -16.833 121.5 -50.5s43.5 -78.834 43.5 -135.501v-354h-114v323c0 36.667 -8.16699 65 -24.5 85s-39.5 30 -69.5 30c-30.667 0 -55.334 -10.667 -74.001 -32s-28 -50 -28 -86v-320h-113z" />
    <glyph glyph-name="o" unicode="o" horiz-adv-x="573" 
d="M285 -11c-70 0 -128.167 25.5 -174.5 76.5s-69.5 115.5 -69.5 193.5v9c0 78 23.333 142.667 70 194s105.334 77 176.001 77c70 0 128.167 -25.5 174.5 -76.5s69.5 -115.5 69.5 -193.5v-9c0 -78 -23.333 -142.667 -70 -194s-105.334 -77 -176.001 -77zM287 88
c39.333 0 71 16 95 48s36 72.667 36 122v10c0 50 -12.5 91.167 -37.5 123.5s-56.833 48.5 -95.5 48.5c-39.333 0 -71 -15.833 -95 -47.5s-36 -72.5 -36 -122.5v-10c0 -49.333 12.5 -90.333 37.5 -123s56.833 -49 95.5 -49z" />
    <glyph glyph-name="p" unicode="p" horiz-adv-x="584" 
d="M65 -151l-0.000976562 681h113v-85c40.667 63.333 92.334 95 155.001 95c58 0 107.167 -23.5 147.5 -70.5s60.5 -112.833 60.5 -197.5v-14c0 -84.667 -20.167 -150.5 -60.5 -197.5s-89.5 -70.5 -147.5 -70.5c-60 0 -111.667 30 -155 90v-231h-113zM302.999 90
c35.333 0 65 15.333 89 46s36 71.667 36 123v11c0 51.333 -12 92.5 -36 123.5s-53.667 46.5 -89 46.5s-65.166 -15.667 -89.499 -47s-36.5 -72.333 -36.5 -123v-11c0 -50.667 12.167 -91.5 36.5 -122.5s54.166 -46.5 89.499 -46.5z" />
    <glyph glyph-name="q" unicode="q" horiz-adv-x="584" 
d="M406 -151l0.000976562 236c-40.667 -63.333 -92.334 -95 -155.001 -95c-57.333 0 -106.333 23.5 -147 70.5s-61 112.833 -61 197.5v13c0 84.667 20.167 150.667 60.5 198s89.5 71 147.5 71c61.333 0 113 -30 155 -90v80h113v-681h-113zM282.001 90
c34.667 0 64.334 15.5 89.001 46.5s37 71.833 37 122.5v11c0 50.667 -12.333 91.667 -37 123s-54.334 47 -89.001 47c-36 0 -65.833 -15.333 -89.5 -46s-35.5 -72 -35.5 -124v-10c0 -51.333 12 -92.5 36 -123.5s53.667 -46.5 89 -46.5z" />
    <glyph glyph-name="r" unicode="r" horiz-adv-x="364" 
d="M339 415l-6.00098 0.000976562c-47.333 0 -85 -15.5 -113 -46.5s-42 -76.167 -42 -135.5v-233h-113v530h113v-104c32.667 77.333 86.334 114.666 161.001 111.999v-123z" />
    <glyph glyph-name="s" unicode="s" horiz-adv-x="436" 
d="M218 -10c-68 0 -130.666 20.9951 -187.999 62.9951l38 86c52.667 -37.333 103 -56 151 -56c22.667 0 40.667 5.16699 54 15.5s20 24.5 20 42.5c0 4 -0.5 7.83301 -1.5 11.5s-2.66699 7.16699 -5 10.5l-6.5 9c-2 2.66699 -5.5 5.66699 -10.5 9l-12 8
c-3 2 -7.83301 4.66699 -14.5 8s-11.834 6 -15.501 8s-9.83398 5 -18.501 9s-15 7 -19 9c-22.667 10.667 -40.834 19.834 -54.501 27.501s-28.167 18 -43.5 31s-26.666 28 -33.999 45s-11 36.167 -11 57.5c0 47.333 16.333 84.833 49 112.5s74.334 41.5 125.001 41.5
c58 0 112 -15.667 162 -47l-34 -88c-47.333 28 -90.333 42 -129 42c-20.667 0 -37 -4.83301 -49 -14.5s-18 -22.5 -18 -38.5c0 -4 0.5 -7.66699 1.5 -11s2.66699 -6.66602 5 -9.99902s4.5 -6.16602 6.5 -8.49902s5.33301 -5.16602 10 -8.49902l11.5 -8
c3 -2 8 -4.83301 15 -8.5l16 -8.5c3.66699 -2 9.83398 -5.16699 18.501 -9.5l19 -9.5c24 -12 42.5 -22 55.5 -30s27.167 -18.5 42.5 -31.5s26.5 -27.667 33.5 -44s10.5 -35.166 10.5 -56.499c0 -49.333 -16.833 -88 -50.5 -116s-76.834 -42 -129.501 -42z" />
    <glyph glyph-name="t" unicode="t" horiz-adv-x="360" 
d="M225 -8c-92 0 -138 45.667 -138 137v304h-57v97h57v143h114v-143h120v-97h-120v-282c0 -38.667 19 -58 57 -58c21.333 0 41.666 5 60.999 15v-93c-25.333 -15.333 -56.666 -23 -93.999 -23z" />
    <glyph glyph-name="u" unicode="u" horiz-adv-x="548" 
d="M224 -10c-51.333 0 -91.5 16.668 -120.5 50.001s-43.5 78.666 -43.5 135.999v354h114v-323c0 -36.667 8.33301 -65 25 -85s39.667 -30 69 -30c30 0 54.333 10.5 73 31.5s28 49.5 28 85.5v321h114v-530h-114v77c-38 -58 -86.333 -87 -145 -87z" />
    <glyph glyph-name="v" unicode="v" horiz-adv-x="525" 
d="M210 -3l-186 533h119l120 -385l121 385h117l-186 -533h-105z" />
    <glyph glyph-name="w" unicode="w" horiz-adv-x="762" 
d="M177 -3l-149 533h116l90 -358l99 359h97l98 -359l92 358h114l-150 -533h-104l-99 353l-101 -353h-103z" />
    <glyph glyph-name="x" unicode="x" horiz-adv-x="512" 
d="M26 0l166 270l-160 260h122l103 -175l104 175h118l-160 -258l167 -272h-122l-110 186l-109 -186h-119z" />
    <glyph glyph-name="y" unicode="y" horiz-adv-x="526" 
d="M157 -154c-39.333 0 -76.333 9 -111 27l34 87c22 -12 43.667 -18 65 -18c29.333 0 52 19 68 57l-190 531h119l124 -393l119 393h117l-185 -541c-17.333 -51.333 -38.333 -88 -63 -110s-57 -33 -97 -33z" />
    <glyph glyph-name="z" unicode="z" horiz-adv-x="480" 
d="M43 0v78l259 358h-251v94h389v-78l-260 -358h260v-94h-397z" />
    <glyph glyph-name="braceleft" unicode="{" horiz-adv-x="430" 
d="M387 -65l-15 -75.002c-77.333 10.667 -131.666 31.167 -162.999 61.5s-47 71.166 -47 122.499c0 9.33301 1.83301 25.333 5.5 48s5.5 39.334 5.5 50.001c0 34.667 -8.33301 60.167 -25 76.5s-43.667 24.5 -81 24.5h-23v88h23c36.667 0 63.5 8.33301 80.5 25
s25.5 42.334 25.5 77.001c0 10.667 -1.83301 27.334 -5.5 50.001s-5.5 38.667 -5.5 48c0 50.667 15.667 91.167 47 121.5s85.666 51.166 162.999 62.499l15 -75c-48 -12 -80.167 -26.5 -96.5 -43.5s-24.5 -42.5 -24.5 -76.5c0 -11.333 1.83301 -28.166 5.5 -50.499
s5.5 -38.833 5.5 -49.5c0 -70 -35.333 -114.333 -106 -133c70.667 -18.667 106 -63 106 -133l-11 -99c0 -34.667 8.16699 -60.5 24.5 -77.5s48.5 -31.167 96.5 -42.5z" />
    <glyph glyph-name="bar" unicode="|" horiz-adv-x="304" 
d="M198 -119h-91v908h91v-908z" />
    <glyph glyph-name="braceright" unicode="}" horiz-adv-x="431" 
d="M387 243l-23 0.000976562c-36.667 0 -63.334 -8.16699 -80.001 -24.5s-25 -41.833 -25 -76.5c0 -10.667 1.66699 -27.334 5 -50.001s5 -38.667 5 -48c0 -51.333 -15.667 -92.166 -47 -122.499s-85.666 -50.833 -162.999 -61.5l-15 75c48 11.333 80.333 25.5 97 42.5
s25 42.833 25 77.5l-12 100c0 70 35.333 114 106 132c-70.667 20 -106 64.333 -106 133c0 10.667 2 27.167 6 49.5s6 39.166 6 50.499c0 34 -8.33301 59.5 -25 76.5s-49 31.5 -97 43.5l15 75c77.333 -11.333 131.666 -32 162.999 -62s47 -71 47 -123
c0 -9.33301 -1.66699 -25.166 -5 -47.499s-5 -38.833 -5 -49.5c0 -34.667 8.33301 -60.334 25 -77.001s43.334 -25 80.001 -25h23v-88z" />
    <glyph glyph-name="asciitilde" unicode="~" horiz-adv-x="451" 
d="M397 360c-17.333 -78 -51 -117.001 -101 -117.001c-19.333 0 -44.333 7.33301 -75 22c-26.667 12.667 -45.667 19 -57 19s-20.333 -3.66699 -27 -11s-13.334 -19.666 -20.001 -36.999l-63 18c18 78 51.667 117 101 117c20.667 0 45.667 -7.33301 75 -22
c28 -13.333 46.667 -20 56 -20c12 0 21.333 3.83301 28 11.5s13.334 20.167 20.001 37.5z" />
    <glyph glyph-name="uni00A0" unicode="&#xa0;" horiz-adv-x="257" 
 />
    <glyph glyph-name="exclamdown" unicode="&#xa1;" horiz-adv-x="275" 
d="M201 567h-127v133h127v-133zM204 0h-134v35l37 448h61l36 -448v-35z" />
    <glyph glyph-name="cent" unicode="&#xa2;" horiz-adv-x="496" 
d="M367 705l-10.999 -85c35.333 -9.33301 68.333 -29.333 99 -60l-51 -84c-22 21.333 -45.667 35.666 -71 42.999l-47 -339h4c41.333 0 80.333 17.333 117 52l49 -76c-50.667 -52 -109 -78 -175 -78l-11 -84h-81l13 98c-47.333 18 -85.333 50 -114 96s-43 99.667 -43 161v8
c0 77.333 21.667 141.333 65 192s98.666 77.334 165.999 80.001l10 76h81zM155.001 350c0 -76.667 23.667 -128 71 -154l45 330c-34.667 -3.33301 -62.667 -20.5 -84 -51.5s-32 -69.5 -32 -115.5v-9z" />
    <glyph glyph-name="sterling" unicode="&#xa3;" horiz-adv-x="553" 
d="M512 0h-459.999v74l70 22v187h-70v98h70v104c0 73.333 19.333 129.333 58 168c37.333 37.333 87.666 56 150.999 56c71.333 0 130 -27 176 -81l-66 -82c-32 36 -67 54 -105 54c-28 0 -50.333 -8.66699 -67 -26c-20 -18.667 -30 -48.667 -30 -90v-103h205v-98h-205v-181
h273v-102z" />
    <glyph glyph-name="currency" unicode="&#xa4;" horiz-adv-x="616" 
d="M577 93c-54.667 -69.333 -119.665 -104 -194.998 -104c-65.333 0 -120.666 21.167 -165.999 63.5s-76.333 100.833 -93 175.5h-82v81h71c-0.666992 8 -1 20.333 -1 37v7c0 19.333 0.333008 33.666 1 42.999h-71v81h84c17.333 72.667 48.666 129.834 93.999 171.501
s99.666 62.5 162.999 62.5c78 0 142.333 -32.333 193 -97l-65 -79c-19.333 24.667 -38.833 42.667 -58.5 54s-42.834 17 -69.501 17c-32 0 -59.833 -11.167 -83.5 -33.5s-41.5 -54.166 -53.5 -95.499h185v-81h-200c-1.33301 -8.66699 -2 -22.667 -2 -42v-7
c0 -16.667 0.333008 -29.334 1 -38.001h201v-81h-187c24.667 -89.333 73 -134 145 -134c44 0 86.333 24.667 127 74z" />
    <glyph glyph-name="yen" unicode="&#xa5;" horiz-adv-x="595" 
d="M353 261v-72h162v-85h-162v-104h-111v104h-161v85h161v72h-161v85h132l-196 354h130l152 -297l154 297h126l-198 -354h134v-85h-162z" />
    <glyph glyph-name="brokenbar" unicode="&#xa6;" 
d="M0 0v700h500v-700h-500zM81 49h339l-170 255zM49 96l171 254l-171 254v-508zM450 96v508l-171 -254zM250 395l170 255h-339z" />
    <glyph glyph-name="section" unicode="&#xa7;" horiz-adv-x="562" 
d="M515 346c0 -57.333 -33.667 -96.3311 -101 -116.998c32.667 -24 49 -55.333 49 -94v-1c0 -43.333 -16.333 -78 -49 -104s-76.334 -39 -131.001 -39c-77.333 0 -142.333 24.333 -195 73l48 76c48.667 -38.667 97 -58 145 -58c23.333 0 41.333 4.33301 54 13
s19 20.334 19 35.001v1c0 16 -8.5 29.167 -25.5 39.5s-49.833 23.166 -98.5 38.499c-67.333 20.667 -114.666 41.334 -141.999 62.001s-41 48 -41 82v1c0 58 34 97.333 102 118c-33.333 24.667 -50 56 -50 94v1c0 43.333 16.167 77.833 48.5 103.5s76.5 38.5 132.5 38.5
c74.667 0 137.334 -23.667 188.001 -71l-47 -76c-44.667 38 -91 57 -139 57c-24.667 0 -43.167 -4.5 -55.5 -13.5s-18.5 -20.5 -18.5 -34.5v-1c0 -14.667 8.83301 -27.834 26.5 -39.501s50.167 -24.834 97.5 -39.501c67.333 -20.667 114.666 -41.334 141.999 -62.001
s41 -48 41 -82v-1zM411 331.002l-0.000976562 2c0 15.333 -8.16699 28.833 -24.5 40.5s-46.166 24.5 -89.499 38.5c-28.667 9.33301 -54 14.666 -76 15.999c-20.667 -1.33301 -37.5 -7.66602 -50.5 -18.999s-19.5 -24.666 -19.5 -39.999v-2c0 -15.333 8 -28.833 24 -40.5
s45.667 -24.5 89 -38.5c30 -9.33301 55.667 -14.666 77 -15.999c20.667 1.33301 37.5 7.66602 50.5 18.999s19.5 24.666 19.5 39.999z" />
    <glyph glyph-name="dieresis" unicode="&#xa8;" horiz-adv-x="502" 
d="M399 598h-112v111h112v-111zM215 598h-112v111h112v-111z" />
    <glyph glyph-name="copyright" unicode="&#xa9;" horiz-adv-x="738" 
d="M693 355v-10c0 -100 -31.167 -184.333 -93.5 -253s-139.5 -103 -231.5 -103c-91.333 0 -168 34.167 -230 102.5s-93 152.5 -93 252.5v10c0 100 31.167 184.5 93.5 253.5s139.5 103.5 231.5 103.5c91.333 0 168 -34.333 230 -103s93 -153 93 -253zM656 345
l-0.00195312 9.99805c0 90.667 -27 166.834 -81 228.501s-122.333 92.5 -205 92.5c-83.333 0 -152.166 -31 -206.499 -93s-81.5 -138.333 -81.5 -229v-11c0 -90.667 27 -166.5 81 -227.5s122.333 -91.5 205 -91.5s151.334 30.833 206.001 92.5s82 137.834 82 228.501z
M496.998 206.998c-35.333 -34 -76.335 -50.998 -123.002 -50.998c-47.333 0 -86.833 18.167 -118.5 54.5s-47.5 83.166 -47.5 140.499v4c0 57.333 16 104.166 48 140.499s72.667 54.5 122 54.5c44.667 0 83.334 -14.667 116.001 -44l-33 -56c-28 23.333 -55.333 35 -82 35
c-29.333 0 -53.166 -11.667 -71.499 -35s-27.5 -54.666 -27.5 -93.999v-6c0 -38.667 9.33301 -69.834 28 -93.501s42.334 -35.5 71.001 -35.5c27.333 0 55.666 12.333 84.999 37z" />
    <glyph glyph-name="ordfeminine" unicode="&#xaa;" horiz-adv-x="350" 
d="M285 408h-65v35c-19.333 -26.667 -45.333 -40 -78 -40c-26 0 -47.667 7.83301 -65 23.5s-26 37.5 -26 65.5v3c0 30.667 9.5 54 28.5 70s44.5 24 76.5 24c21.333 0 43 -4 65 -12v11c0 38.667 -20.667 58 -62 58c-18.667 0 -43 -6 -73 -18l-13 54
c32.667 14.667 64.667 22 96 22c38 0 66.833 -10 86.5 -30s29.5 -48.667 29.5 -86v-180zM291 290h-242v53h242v-53zM221 507l0.000976562 28c-16.667 6 -34 9 -52 9c-35.333 0 -53 -15.333 -53 -46v-1c0 -29.333 15 -44 45 -44c17.333 0 31.666 5 42.999 15s17 23 17 39z
" />
    <glyph glyph-name="guillemotleft" unicode="&#xab;" horiz-adv-x="554" 
d="M509 87l-88 -46l-154 219v8l154 220l88 -45l-125 -178zM280 87l-88 -46l-154 219v8l154 220l87 -45l-124 -178z" />
    <glyph glyph-name="logicalnot" unicode="&#xac;" horiz-adv-x="590" 
d="M404 417h-332v107h442v-280h-110v173z" />
    <glyph glyph-name="uni00AD" unicode="&#xad;" horiz-adv-x="381" 
d="M329 250h-278v112h278v-112z" />
    <glyph glyph-name="registered" unicode="&#xae;" horiz-adv-x="738" 
d="M693 355v-10c0 -100 -31.167 -184.333 -93.5 -253s-139.5 -103 -231.5 -103c-91.333 0 -168 34.167 -230 102.5s-93 152.5 -93 252.5v10c0 100 31.167 184.5 93.5 253.5s139.5 103.5 231.5 103.5c91.333 0 168 -34.333 230 -103s93 -153 93 -253zM656 345
l-0.00195312 9.99805c0 90.667 -27 166.834 -81 228.501s-122.333 92.5 -205 92.5c-83.333 0 -152.166 -31 -206.499 -93s-81.5 -138.333 -81.5 -229v-11c0 -90.667 27 -166.5 81 -227.5s122.333 -91.5 205 -91.5s151.334 30.833 206.001 92.5s82 137.834 82 228.501z
M516.998 428.998v-2c0 -27.333 -7 -50.5 -21 -69.5s-32.667 -32.833 -56 -41.5l88 -148h-78l-80 133h-61v-133h-68v381h139c41.333 0 74.5 -10.5 99.5 -31.5s37.5 -50.5 37.5 -88.5zM447.998 424.998v1c0 20.667 -6.33301 36.167 -19 46.5s-30 15.5 -52 15.5h-68v-127h69
c21.333 0 38.333 5.66699 51 17s19 27 19 47z" />
    <glyph glyph-name="macron" unicode="&#xaf;" horiz-adv-x="502" 
d="M408 602h-314v84h314v-84z" />
    <glyph glyph-name="degree" unicode="&#xb0;" horiz-adv-x="410" 
d="M354 541c0 -44.667 -14.833 -82.834 -44.5 -114.501s-64.5 -47.5 -104.5 -47.5s-74.833 15.833 -104.5 47.5s-44.5 69.834 -44.5 114.501v3c0 44.667 14.833 82.834 44.5 114.501s64.5 47.5 104.5 47.5s74.833 -15.833 104.5 -47.5s44.5 -69.834 44.5 -114.501v-3z
M285 541v3c0 28 -7.83301 51.167 -23.5 69.5s-34.5 27.5 -56.5 27.5c-22.667 0 -41.5 -9.16699 -56.5 -27.5s-22.5 -41.5 -22.5 -69.5v-3c0 -28 7.5 -51.167 22.5 -69.5s33.833 -27.5 56.5 -27.5c22 0 40.833 9.16699 56.5 27.5s23.5 41.5 23.5 69.5z" />
    <glyph glyph-name="plusminus" unicode="&#xb1;" horiz-adv-x="590" 
d="M68 25v101h454v-101h-454zM240 195v144h-176v106h176v144h111v-144h173v-106h-173v-144h-111z" />
    <glyph glyph-name="twosuperior" unicode="&#xb2;" 
d="M0 0v700h500v-700h-500zM81 49h339l-170 255zM49 96l171 254l-171 254v-508zM450 96v508l-171 -254zM250 395l170 255h-339z" />
    <glyph glyph-name="threesuperior" unicode="&#xb3;" 
d="M0 0v700h500v-700h-500zM81 49h339l-170 255zM49 96l171 254l-171 254v-508zM450 96v508l-171 -254zM250 395l170 255h-339z" />
    <glyph glyph-name="acute" unicode="&#xb4;" horiz-adv-x="502" 
d="M363 710l-117 -117h-83l100 163z" />
    <glyph glyph-name="mu" unicode="&#xb5;" horiz-adv-x="555" 
d="M490 0l-113.001 -0.000976562v78c-13.333 -24 -31.666 -43.5 -54.999 -58.5s-50 -22.5 -80 -22.5c-28.667 0 -49.667 8 -63 24v-172h-114v681h114v-306c0 -39.333 8.5 -71.666 25.5 -96.999s40.167 -38 69.5 -38c35.333 0 61.333 14 78 42s25 66.333 25 115v284h113v-530
z" />
    <glyph glyph-name="paragraph" unicode="&#xb6;" horiz-adv-x="496" 
d="M290 700h131v-700h-117v241h-13c-76 1.33301 -138 21.833 -186 61.5s-72 95.5 -72 167.5v1c0 72 23.667 128.167 71 168.5s109.333 60.5 186 60.5z" />
    <glyph glyph-name="periodcentered" unicode="&#xb7;" horiz-adv-x="254" 
d="M191 240h-128v132h128v-132z" />
    <glyph glyph-name="cedilla" unicode="&#xb8;" horiz-adv-x="502" 
d="M307 12l-71 -168l-99 40l89 128h81z" />
    <glyph glyph-name="onesuperior" unicode="&#xb9;" 
d="M0 0v700h500v-700h-500zM81 49h339l-170 255zM49 96l171 254l-171 254v-508zM450 96v508l-171 -254zM250 395l170 255h-339z" />
    <glyph glyph-name="ordmasculine" unicode="&#xba;" horiz-adv-x="350" 
d="M307 552c0 -43.333 -12.5 -79.167 -37.5 -107.5s-56.833 -42.5 -95.5 -42.5c-38 0 -69.333 14 -94 42s-37 63.667 -37 107v5c0 42.667 12.5 78.167 37.5 106.5s56.5 42.5 94.5 42.5s69.5 -14.167 94.5 -42.5s37.5 -63.833 37.5 -106.5v-4zM301 289.999h-253v53h253v-53z
M241 550.999v5c0 26 -6.16699 47.667 -18.5 65s-28.5 26 -48.5 26s-36 -8.5 -48 -25.5s-18 -38.5 -18 -64.5v-6c0 -26 6.16699 -47.667 18.5 -65s28.5 -26 48.5 -26s36 8.5 48 25.5s18 38.833 18 65.5z" />
    <glyph glyph-name="guillemotright" unicode="&#xbb;" horiz-adv-x="554" 
d="M516 260l-154 -219l-88 45l126 178l-126 177l88 47l154 -220v-8zM287 260l-155 -219l-88 45l127 178l-126 177l87 47l155 -220v-8z" />
    <glyph glyph-name="onequarter" unicode="&#xbc;" 
d="M0 0v700h500v-700h-500zM81 49h339l-170 255zM49 96l171 254l-171 254v-508zM450 96v508l-171 -254zM250 395l170 255h-339z" />
    <glyph glyph-name="onehalf" unicode="&#xbd;" 
d="M0 0v700h500v-700h-500zM81 49h339l-170 255zM49 96l171 254l-171 254v-508zM450 96v508l-171 -254zM250 395l170 255h-339z" />
    <glyph glyph-name="threequarters" unicode="&#xbe;" 
d="M0 0v700h500v-700h-500zM81 49h339l-170 255zM49 96l171 254l-171 254v-508zM450 96v508l-171 -254zM250 395l170 255h-339z" />
    <glyph glyph-name="questiondown" unicode="&#xbf;" horiz-adv-x="475" 
d="M198 700h128v-132h-128v132zM36 191c0 104 59.332 169.332 177.999 195.999l10 96h75l17 -166l-4 -5c-108 -10 -162 -49.333 -162 -118v-2c0 -28 9.83301 -50.667 29.5 -68s45.834 -26 78.501 -26c50.667 0 97.667 21 141 63l52 -83c-55.333 -57.333 -122 -86 -200 -86
c-64.667 0 -116.667 17.833 -156 53.5s-59 82.834 -59 141.501v4z" />
    <glyph glyph-name="Agrave" unicode="&#xc0;" horiz-adv-x="674" 
d="M25 0l256 704h112l256 -704h-120l-59 165h-270l-59 -165h-116zM235 268h199l-99 281zM385 752h-83l-117 117l100 46z" />
    <glyph glyph-name="Aacute" unicode="&#xc1;" horiz-adv-x="674" 
d="M25 0l256 704h112l256 -704h-120l-59 165h-270l-59 -165h-116zM235 268h199l-99 281zM487 869l-117 -117h-83l100 163z" />
    <glyph glyph-name="Acircumflex" unicode="&#xc2;" horiz-adv-x="674" 
d="M25 0l256 704h112l256 -704h-120l-59 165h-270l-59 -165h-116zM235 268h199l-99 281zM491 752h-86l-69 76l-69 -76h-84l103 146h102z" />
    <glyph glyph-name="Atilde" unicode="&#xc3;" horiz-adv-x="674" 
d="M649 0h-120l-59 165h-270l-59 -165h-116l256 704h112zM434 268l-99 281l-100 -281h199zM507 867c-17.333 -77.333 -50.999 -116 -100.999 -116c-19.333 0 -46.333 8 -81 24c-22.667 12 -39.334 18 -50.001 18c-12 0 -21.167 -3.66699 -27.5 -11s-13.166 -20 -20.499 -38
l-63 19c18 77.333 51.667 116 101 116c23.333 0 49.666 -7.66699 78.999 -23c22 -12 39.667 -18 53 -18c11.333 0 20.5 3.66699 27.5 11s13.5 20 19.5 38z" />
    <glyph glyph-name="Adieresis" unicode="&#xc4;" horiz-adv-x="674" 
d="M25 0l256 704h112l256 -704h-120l-59 165h-270l-59 -165h-116zM235 268h199l-99 281zM485 757h-112v111h112v-111zM301 757h-112v111h112v-111z" />
    <glyph glyph-name="Aring" unicode="&#xc5;" horiz-adv-x="674" 
d="M649 0h-120l-59 165h-271l-58 -165h-117l249 682c-30.667 20.667 -46 49.667 -46 87v2c0 30 11 55.833 33 77.5s47.667 32.5 77 32.5s55 -10.833 77 -32.5s33 -47.5 33 -77.5v-2c0 -36.667 -15.333 -65.667 -46 -87zM394 769v2c0 16 -5.5 30 -16.5 42s-24.5 18 -40.5 18
s-29.5 -6 -40.5 -18s-16.5 -26 -16.5 -42v-2c0 -16 5.5 -30 16.5 -42s24.5 -18 40.5 -18s29.5 6 40.5 18s16.5 26 16.5 42zM434 268l-99 281l-100 -281h199z" />
    <glyph glyph-name="AE" unicode="&#xc6;" horiz-adv-x="894" 
d="M847 0h-430v165h-213l-77 -165h-117l329 700h503v-105h-310v-190h274v-105h-274v-195h315v-105zM417 268v326h-17l-149 -326h166z" />
    <glyph glyph-name="Ccedilla" unicode="&#xc7;" horiz-adv-x="617" 
d="M294 -3c-72.667 14.667 -131.499 53.333 -176.499 116s-67.5 140 -67.5 232v9c0 104.667 29.333 190.167 88 256.5s133.334 99.5 224.001 99.5c83.333 0 154.666 -27 213.999 -81l-55 -94c-51.333 44.667 -103.666 67 -156.999 67c-56.667 0 -103 -22.5 -139 -67.5
s-54 -104.833 -54 -179.5v-9c0 -75.333 18 -135.5 54 -180.5s82.667 -67.5 140 -67.5c31.333 0 59.166 5.66699 83.499 17s50.166 29 77.499 53l55 -85c-59.333 -58 -127.333 -88.667 -204 -92l-62 -147l-99 40z" />
    <glyph glyph-name="Egrave" unicode="&#xc8;" horiz-adv-x="568" 
d="M521 0h-444v700h440v-105h-325v-190h288v-105h-288v-195h329v-105zM360 752h-83l-117 117l100 46z" />
    <glyph glyph-name="Eacute" unicode="&#xc9;" horiz-adv-x="568" 
d="M77 0v700h440v-105h-325v-190h288v-105h-288v-195h329v-105h-444zM431 869l-117 -117h-83l100 163z" />
    <glyph glyph-name="Ecircumflex" unicode="&#xca;" horiz-adv-x="568" 
d="M521 0h-444v700h440v-105h-325v-190h288v-105h-288v-195h329v-105zM447 753h-86l-69 76l-69 -76h-84l103 146h102z" />
    <glyph glyph-name="Edieresis" unicode="&#xcb;" horiz-adv-x="568" 
d="M77 0v700h440v-105h-325v-190h288v-105h-288v-195h329v-105h-444zM443 757h-112v111h112v-111zM259 757h-112v111h112v-111z" />
    <glyph glyph-name="Igrave" unicode="&#xcc;" horiz-adv-x="281" 
d="M198 0h-116v700h116v-700zM186 752h-83l-117 117l100 46z" />
    <glyph glyph-name="Iacute" unicode="&#xcd;" horiz-adv-x="281" 
d="M82 0v700h116v-700h-116zM293 869l-117 -117h-83l100 163z" />
    <glyph glyph-name="Icircumflex" unicode="&#xce;" horiz-adv-x="281" 
d="M198 0h-116v700h116v-700zM295 753h-86l-69 76l-69 -76h-84l103 146h102z" />
    <glyph glyph-name="Idieresis" unicode="&#xcf;" horiz-adv-x="281" 
d="M82 0v700h116v-700h-116zM289 757h-112v111h112v-111zM105 757h-112v111h112v-111z" />
    <glyph glyph-name="Eth" unicode="&#xd0;" horiz-adv-x="700" 
d="M649 347c0 -103.333 -30.667 -187 -92 -251s-141.333 -96 -240 -96h-213v299h-68v105h68v296h213c98.667 0 178.667 -32 240 -96s92 -147.333 92 -250v-7zM529 346l0.000976562 6c0 74.667 -19.333 133.667 -58 177s-89.334 65 -152.001 65h-101v-190h144v-105h-144v-194
h102c62.667 0 113.167 21.5 151.5 64.5s57.5 101.833 57.5 176.5z" />
    <glyph glyph-name="Ntilde" unicode="&#xd1;" horiz-adv-x="681" 
d="M77 0v700h107l307 -466v466h114v-700h-99l-316 481v-481h-113zM514 867c-17.333 -77.333 -50.999 -116 -100.999 -116c-19.333 0 -46.333 8 -81 24c-22.667 12 -39.334 18 -50.001 18c-12 0 -21.167 -3.66699 -27.5 -11s-13.166 -20 -20.499 -38l-63 19
c18 77.333 51.667 116 101 116c23.333 0 49.666 -7.66699 78.999 -23c22 -12 39.667 -18 53 -18c11.333 0 20.5 3.66699 27.5 11s13.5 20 19.5 38z" />
    <glyph glyph-name="Ograve" unicode="&#xd2;" horiz-adv-x="720" 
d="M359 -11c-90.667 0 -164.833 33.167 -222.5 99.5s-86.5 151.5 -86.5 255.5v10c0 104 29 189.5 87 256.5s132.667 100.5 224 100.5c90.667 0 164.667 -33.167 222 -99.5s86 -151.5 86 -255.5v-10c0 -104 -29 -189.5 -87 -256.5s-132.333 -100.5 -223 -100.5zM361.001 96
c56 0 101.5 22.667 136.5 68s52.5 105.333 52.5 180v10c0 75.333 -17.833 135.833 -53.5 181.5s-81.5 68.5 -137.5 68.5c-55.333 0 -100.5 -22.667 -135.5 -68s-52.5 -105.333 -52.5 -180v-10c0 -75.333 17.667 -135.833 53 -181.5s81 -68.5 137 -68.5zM399.001 752h-83
l-117 117l100 46z" />
    <glyph glyph-name="Oacute" unicode="&#xd3;" horiz-adv-x="720" 
d="M359 -11c-90.667 0 -164.833 33.167 -222.5 99.5s-86.5 151.5 -86.5 255.5v10c0 104 29 189.5 87 256.5s132.667 100.5 224 100.5c90.667 0 164.667 -33.167 222 -99.5s86 -151.5 86 -255.5v-10c0 -104 -29 -189.5 -87 -256.5s-132.333 -100.5 -223 -100.5zM361.001 96
c56 0 101.5 22.667 136.5 68s52.5 105.333 52.5 180v10c0 75.333 -17.833 135.833 -53.5 181.5s-81.5 68.5 -137.5 68.5c-55.333 0 -100.5 -22.667 -135.5 -68s-52.5 -105.333 -52.5 -180v-10c0 -75.333 17.667 -135.833 53 -181.5s81 -68.5 137 -68.5zM516.001 869
l-117 -117h-83l100 163z" />
    <glyph glyph-name="Ocircumflex" unicode="&#xd4;" horiz-adv-x="720" 
d="M669 346c0 -104 -28.999 -189.5 -86.999 -256.5s-132.333 -100.5 -223 -100.5s-164.834 33.167 -222.501 99.5s-86.5 151.5 -86.5 255.5v10c0 104 29 189.5 87 256.5s132.667 100.5 224 100.5c90.667 0 164.667 -33.167 222 -99.5s86 -151.5 86 -255.5v-10zM550.001 344
v10c0 75.333 -17.833 135.833 -53.5 181.5s-81.5 68.5 -137.5 68.5c-55.333 0 -100.5 -22.667 -135.5 -68s-52.5 -105.333 -52.5 -180v-10c0 -75.333 17.667 -135.833 53 -181.5s81 -68.5 137 -68.5s101.5 22.667 136.5 68s52.5 105.333 52.5 180zM514.001 753h-86l-69 76
l-69 -76h-84l103 146h102z" />
    <glyph glyph-name="Otilde" unicode="&#xd5;" horiz-adv-x="720" 
d="M359 -11c-90.667 0 -164.833 33.167 -222.5 99.5s-86.5 151.5 -86.5 255.5v10c0 104 29 189.5 87 256.5s132.667 100.5 224 100.5c90.667 0 164.667 -33.167 222 -99.5s86 -151.5 86 -255.5v-10c0 -104 -29 -189.5 -87 -256.5s-132.333 -100.5 -223 -100.5zM361.001 96
c56 0 101.5 22.667 136.5 68s52.5 105.333 52.5 180v10c0 75.333 -17.833 135.833 -53.5 181.5s-81.5 68.5 -137.5 68.5c-55.333 0 -100.5 -22.667 -135.5 -68s-52.5 -105.333 -52.5 -180v-10c0 -75.333 17.667 -135.833 53 -181.5s81 -68.5 137 -68.5zM531.001 867
c-17.333 -77.333 -50.999 -116 -100.999 -116c-19.333 0 -46.333 8 -81 24c-22.667 12 -39.334 18 -50.001 18c-12 0 -21.167 -3.66699 -27.5 -11s-13.166 -20 -20.499 -38l-63 19c18 77.333 51.667 116 101 116c23.333 0 49.666 -7.66699 78.999 -23
c22 -12 39.667 -18 53 -18c11.333 0 20.5 3.66699 27.5 11s13.5 20 19.5 38z" />
    <glyph glyph-name="Odieresis" unicode="&#xd6;" horiz-adv-x="720" 
d="M359 -11c-90.667 0 -164.833 33.167 -222.5 99.5s-86.5 151.5 -86.5 255.5v10c0 104 29 189.5 87 256.5s132.667 100.5 224 100.5c90.667 0 164.667 -33.167 222 -99.5s86 -151.5 86 -255.5v-10c0 -104 -29 -189.5 -87 -256.5s-132.333 -100.5 -223 -100.5zM361.001 96
c56 0 101.5 22.667 136.5 68s52.5 105.333 52.5 180v10c0 75.333 -17.833 135.833 -53.5 181.5s-81.5 68.5 -137.5 68.5c-55.333 0 -100.5 -22.667 -135.5 -68s-52.5 -105.333 -52.5 -180v-10c0 -75.333 17.667 -135.833 53 -181.5s81 -68.5 137 -68.5zM508.001 757h-112
v111h112v-111zM324.001 757h-112v111h112v-111z" />
    <glyph glyph-name="multiply" unicode="&#xd7;" 
d="M0 0v700h500v-700h-500zM81 49h339l-170 255zM49 96l171 254l-171 254v-508zM450 96v508l-171 -254zM250 395l170 255h-339z" />
    <glyph glyph-name="Oslash" unicode="&#xd8;" horiz-adv-x="720" 
d="M669 354l0.000976562 -7.99902c0 -104 -29 -189.5 -87 -256.5s-132.333 -100.5 -223 -100.5c-65.333 0 -122.333 17.667 -171 53l-38 -47h-103l80 104c-51.333 66 -77 147.667 -77 245v9c0 104 29.167 189.667 87.5 257s132.833 101 223.5 101
c65.333 0 122.666 -19 171.999 -57l39 51h104l-83 -109c50.667 -64.667 76 -145.334 76 -242.001zM466.001 559.001c-29.333 31.333 -65 46.999 -107 46.999c-56.667 0 -102.667 -23.167 -138 -69.5s-53 -107.166 -53 -182.499v-8c0 -51.333 11.667 -97 35 -137z
M552.001 344v8.99902c0 48.667 -11.667 92.667 -35 132l-263 -349c29.333 -29.333 65 -44 107 -44c56 0 101.833 23.333 137.5 70s53.5 107.334 53.5 182.001z" />
    <glyph glyph-name="Ugrave" unicode="&#xd9;" horiz-adv-x="655" 
d="M327 -10c-80 0 -143.166 23.665 -189.499 70.998s-69.5 116 -69.5 206v433h115v-433c0 -55.333 12.833 -97.666 38.5 -126.999s61.167 -44 106.5 -44s80.666 14.333 105.999 43s38 70.334 38 125.001v436h115v-430c0 -91.333 -23.333 -160.833 -70 -208.5
s-110 -71.5 -190 -71.5zM375.001 748.998h-83l-117 117l100 46z" />
    <glyph glyph-name="Uacute" unicode="&#xda;" horiz-adv-x="655" 
d="M327 -10c-80 0 -143.166 23.665 -189.499 70.998s-69.5 116 -69.5 206v433h115v-433c0 -55.333 12.833 -97.666 38.5 -126.999s61.167 -44 106.5 -44s80.666 14.333 105.999 43s38 70.334 38 125.001v436h115v-430c0 -91.333 -23.333 -160.833 -70 -208.5
s-110 -71.5 -190 -71.5zM479.001 865.998l-117 -117h-83l100 163z" />
    <glyph glyph-name="Ucircumflex" unicode="&#xdb;" horiz-adv-x="655" 
d="M587 270c0 -91.333 -23.332 -160.835 -69.999 -208.502s-110 -71.5 -190 -71.5s-143.167 23.667 -189.5 71s-69.5 116 -69.5 206v433h115v-433c0 -55.333 12.833 -97.666 38.5 -126.999s61.167 -44 106.5 -44s80.666 14.333 105.999 43s38 70.334 38 125.001v436h115
v-430zM482.001 751.998h-86l-69 76l-69 -76h-84l103 146h102z" />
    <glyph glyph-name="Udieresis" unicode="&#xdc;" horiz-adv-x="655" 
d="M587 270c0 -91.333 -23.332 -160.835 -69.999 -208.502s-110 -71.5 -190 -71.5s-143.167 23.667 -189.5 71s-69.5 116 -69.5 206v433h115v-433c0 -55.333 12.833 -97.666 38.5 -126.999s61.167 -44 106.5 -44s80.666 14.333 105.999 43s38 70.334 38 125.001v436h115
v-430zM476.001 755.998h-112v111h112v-111zM292.001 755.998h-112v111h112v-111z" />
    <glyph glyph-name="Yacute" unicode="&#xdd;" horiz-adv-x="614" 
d="M249 0v279l-235 421h132l162 -302l163 302h128l-234 -420v-280h-116zM462 866l-117 -117h-83l100 163z" />
    <glyph glyph-name="Thorn" unicode="&#xde;" horiz-adv-x="585" 
d="M551 358c0 -75.333 -24.334 -133.831 -73.001 -175.498s-110.667 -62.834 -186 -63.501h-100v-119h-116v700h116v-108h110c74.667 0 134.834 -20.833 180.501 -62.5s68.5 -98.834 68.5 -171.501zM433.999 355.002c0 42.667 -12.332 75.167 -36.999 97.5
s-58.334 33.5 -101.001 33.5h-104v-263h103c42.667 0 76.5 12 101.5 36s37.5 56 37.5 96z" />
    <glyph glyph-name="germandbls" unicode="&#xdf;" horiz-adv-x="552" 
d="M510 196c0 -62.667 -22 -111.666 -66 -146.999s-104.333 -52.333 -181 -51v89c43.333 2 76.5 12.667 99.5 32s34.5 46 34.5 80v1c0 32 -11.833 58.167 -35.5 78.5s-56.5 33.5 -98.5 39.5v79c66.667 32 100 77.667 100 137v2c0 28.667 -8 51.5 -24 68.5
s-37.333 25.5 -64 25.5c-29.333 0 -52.833 -11 -70.5 -33s-26.5 -52 -26.5 -90v-507h-113v503c0 69.333 19.333 124.166 58 164.499s91 60.5 157 60.5c60 0 107.5 -17 142.5 -51s52.5 -77.333 52.5 -130v-2c0 -74.667 -34.333 -131.667 -103 -171
c92 -32 138 -90.667 138 -176v-2z" />
    <glyph glyph-name="agrave" unicode="&#xe0;" horiz-adv-x="516" 
d="M457 0l-111 -0.000976562v65c-36.667 -50 -86 -75 -148 -75c-46 0 -84.833 14.5 -116.5 43.5s-47.5 68.167 -47.5 117.5v6c0 55.333 17.167 97.5 51.5 126.5s80.5 43.5 138.5 43.5c43.333 0 84 -7 122 -21v21c0 72.667 -38.667 109 -116 109c-40.667 0 -85 -10 -133 -30
l-22 93c53.333 24.667 110.666 37 171.999 37c68.667 0 120.834 -17.667 156.501 -53s53.5 -86.666 53.5 -153.999v-329zM347 176.999v53.999c-28.667 12.667 -61.667 19 -99 19c-32.667 0 -58 -7.66699 -76 -23s-27 -36.666 -27 -63.999v-6c0 -26 8 -46.167 24 -60.5
s37 -21.5 63 -21.5c33.333 0 60.833 9.5 82.5 28.5s32.5 43.5 32.5 73.5zM306 592.998h-83l-117 117l100 46z" />
    <glyph glyph-name="aacute" unicode="&#xe1;" horiz-adv-x="516" 
d="M198 -10c-46 0 -84.833 14.499 -116.5 43.499s-47.5 68.167 -47.5 117.5v6c0 55.333 17.167 97.5 51.5 126.5s80.5 43.5 138.5 43.5c43.333 0 84 -7 122 -21v21c0 72.667 -38.667 109 -116 109c-40.667 0 -85 -10 -133 -30l-22 93c53.333 24.667 110.666 37 171.999 37
c68.667 0 120.834 -17.667 156.501 -53s53.5 -86.666 53.5 -153.999v-329h-111v65c-36.667 -50 -86 -75 -148 -75zM232 74.999c33.333 0 60.833 9.49902 82.5 28.499s32.5 43.5 32.5 73.5v54c-28.667 12.667 -61.667 19 -99 19c-32.667 0 -58 -7.66699 -76 -23
s-27 -36.666 -27 -63.999v-6c0 -26 8 -46.167 24 -60.5s37 -21.5 63 -21.5zM401 709.998l-117 -117h-83l100 163z" />
    <glyph glyph-name="acircumflex" unicode="&#xe2;" horiz-adv-x="516" 
d="M198 -10c-46 0 -84.833 14.499 -116.5 43.499s-47.5 68.167 -47.5 117.5v6c0 55.333 17.167 97.5 51.5 126.5s80.5 43.5 138.5 43.5c43.333 0 84 -7 122 -21v21c0 72.667 -38.667 109 -116 109c-40.667 0 -85 -10 -133 -30l-22 93c53.333 24.667 110.666 37 171.999 37
c68.667 0 120.834 -17.667 156.501 -53s53.5 -86.666 53.5 -153.999v-329h-111v65c-36.667 -50 -86 -75 -148 -75zM232 74.999c33.333 0 60.833 9.49902 82.5 28.499s32.5 43.5 32.5 73.5v54c-28.667 12.667 -61.667 19 -99 19c-32.667 0 -58 -7.66699 -76 -23
s-27 -36.666 -27 -63.999v-6c0 -26 8 -46.167 24 -60.5s37 -21.5 63 -21.5zM411 593.998h-86l-69 76l-69 -76h-84l103 146h102z" />
    <glyph glyph-name="atilde" unicode="&#xe3;" horiz-adv-x="516" 
d="M198 -10c-46 0 -84.833 14.499 -116.5 43.499s-47.5 68.167 -47.5 117.5v6c0 55.333 17.167 97.5 51.5 126.5s80.5 43.5 138.5 43.5c43.333 0 84 -7 122 -21v21c0 72.667 -38.667 109 -116 109c-40.667 0 -85 -10 -133 -30l-22 93c53.333 24.667 110.666 37 171.999 37
c68.667 0 120.834 -17.667 156.501 -53s53.5 -86.666 53.5 -153.999v-329h-111v65c-36.667 -50 -86 -75 -148 -75zM232 74.999c33.333 0 60.833 9.49902 82.5 28.499s32.5 43.5 32.5 73.5v54c-28.667 12.667 -61.667 19 -99 19c-32.667 0 -58 -7.66699 -76 -23
s-27 -36.666 -27 -63.999v-6c0 -26 8 -46.167 24 -60.5s37 -21.5 63 -21.5zM429 707.998c-17.333 -77.333 -50.999 -116 -100.999 -116c-19.333 0 -46.333 8 -81 24c-22.667 12 -39.334 18 -50.001 18c-12 0 -21.167 -3.66699 -27.5 -11s-13.166 -20 -20.499 -38l-63 19
c18 77.333 51.667 116 101 116c23.333 0 49.666 -7.66699 78.999 -23c22 -12 39.667 -18 53 -18c11.333 0 20.5 3.66699 27.5 11s13.5 20 19.5 38z" />
    <glyph glyph-name="adieresis" unicode="&#xe4;" horiz-adv-x="516" 
d="M457 0l-111 -0.000976562v65c-36.667 -50 -86 -75 -148 -75c-46 0 -84.833 14.5 -116.5 43.5s-47.5 68.167 -47.5 117.5v6c0 55.333 17.167 97.5 51.5 126.5s80.5 43.5 138.5 43.5c43.333 0 84 -7 122 -21v21c0 72.667 -38.667 109 -116 109c-40.667 0 -85 -10 -133 -30
l-22 93c53.333 24.667 110.666 37 171.999 37c68.667 0 120.834 -17.667 156.501 -53s53.5 -86.666 53.5 -153.999v-329zM347 176.999v53.999c-28.667 12.667 -61.667 19 -99 19c-32.667 0 -58 -7.66699 -76 -23s-27 -36.666 -27 -63.999v-6c0 -26 8 -46.167 24 -60.5
s37 -21.5 63 -21.5c33.333 0 60.833 9.5 82.5 28.5s32.5 43.5 32.5 73.5zM404 597.998h-112v111h112v-111zM220 597.998h-112v111h112v-111z" />
    <glyph glyph-name="aring" unicode="&#xe5;" horiz-adv-x="516" 
d="M457 0l-111 -0.000976562v65c-36.667 -50 -86 -75 -148 -75c-46 0 -84.833 14.5 -116.5 43.5s-47.5 68.167 -47.5 117.5v6c0 55.333 17.167 97.5 51.5 126.5s80.5 43.5 138.5 43.5c43.333 0 84 -7 122 -21v21c0 72.667 -38.667 109 -116 109c-40.667 0 -85 -10 -133 -30
l-22 93c53.333 24.667 110.666 37 171.999 37c68.667 0 120.834 -17.667 156.501 -53s53.5 -86.666 53.5 -153.999v-329zM347 176.999v53.999c-28.667 12.667 -61.667 19 -99 19c-32.667 0 -58 -7.66699 -76 -23s-27 -36.666 -27 -63.999v-6c0 -26 8 -46.167 24 -60.5
s37 -21.5 63 -21.5c33.333 0 60.833 9.5 82.5 28.5s32.5 43.5 32.5 73.5zM364 699.998v-3c0 -29.333 -10.833 -54.666 -32.5 -75.999s-47.167 -32 -76.5 -32s-55 10.667 -77 32s-33 46.666 -33 75.999v3c0 30 10.833 55.667 32.5 77s47.5 32 77.5 32
c29.333 0 54.833 -10.667 76.5 -32s32.5 -47 32.5 -77zM312 697.998v2c0 16 -5.5 30 -16.5 42s-24.5 18 -40.5 18s-29.667 -6 -41 -18s-17 -26 -17 -42v-2c0 -16 5.66699 -30 17 -42s25 -18 41 -18s29.5 6 40.5 18s16.5 26 16.5 42z" />
    <glyph glyph-name="ae" unicode="&#xe6;" horiz-adv-x="829" 
d="M209 -10c-51.333 0 -93.332 14.5 -125.999 43.5s-49 68.833 -49 119.5v5c0 54.667 17 96.5 51 125.5s80 43.5 138 43.5c42 0 82.333 -7 121 -21v21c0 72.667 -38.333 109 -115 109c-40 0 -84 -10 -132 -30l-22 93c54.667 24.667 111.667 37 171 37
c80.667 0 135.667 -26.667 165 -80c39.333 55.333 92.333 83 159 83c69.333 0 123.333 -25.833 162 -77.5s58 -118.5 58 -200.5l-1 -40h-335c5.33301 -44 20.166 -77.667 44.499 -101s54.5 -35 90.5 -35c45.333 0 88.333 18.333 129 55l51 -71
c-50 -53.333 -111.667 -80 -185 -80c-79.333 0 -141.333 31.667 -186 95c-54 -62.667 -117 -94 -189 -94zM232.001 76c48.667 0 92.333 24.668 131 74.001c-8.66699 23.333 -14 50.666 -16 81.999c-33.333 12 -66.666 18 -99.999 18c-32.667 0 -57.834 -7.5 -75.501 -22.5
s-26.5 -36.5 -26.5 -64.5v-4c0 -26 8 -46.333 24 -61s37 -22 63 -22zM453 300.001h226c-3.33301 44 -14.5 79.167 -33.5 105.5s-44.833 39.5 -77.5 39.5c-31.333 0 -57.333 -12.833 -78 -38.5s-33 -61.167 -37 -106.5z" />
    <glyph glyph-name="ccedilla" unicode="&#xe7;" horiz-adv-x="486" 
d="M220 -2c-53.333 13.333 -96.499 43.667 -129.499 91s-49.5 104 -49.5 170v9c0 78.667 23 143.5 69 194.5s103.667 76.5 173 76.5c66.667 0 122.667 -22.667 168 -68l-52 -86c-36.667 35.333 -74.667 53 -114 53c-37.333 0 -68.333 -15.5 -93 -46.5s-37 -71.5 -37 -121.5
v-10c0 -51.333 12.5 -92.333 37.5 -123s57.5 -46 97.5 -46c39.333 0 77.333 17.333 114 52l50 -79c-42.667 -45.333 -93.334 -70 -152.001 -74l-63 -146l-99 40z" />
    <glyph glyph-name="egrave" unicode="&#xe8;" horiz-adv-x="529" 
d="M489 261l-0.999023 -39.999h-334c5.33301 -44 20.166 -77.667 44.499 -101s54.166 -35 89.499 -35c46.667 0 89.334 18.333 128.001 55l53 -71c-50 -53.333 -111.667 -80 -185 -80c-70 0 -128.167 24.667 -174.5 74s-69.5 114.666 -69.5 195.999v8
c0 79.333 21.5 144.5 64.5 195.5s97.5 76.5 163.5 76.5c70 0 124.333 -25.833 163 -77.5s58 -118.5 58 -200.5zM378.001 300.001c-2.66699 43.333 -13.667 78.333 -33 105s-45 40 -77 40c-31.333 0 -57.333 -12.833 -78 -38.5s-33 -61.167 -37 -106.5h225zM312.001 593.001
h-83l-117 117l100 46z" />
    <glyph glyph-name="eacute" unicode="&#xe9;" horiz-adv-x="529" 
d="M284 -11c-70 0 -128.166 24.668 -174.499 74.001s-69.5 114.666 -69.5 195.999v8c0 79.333 21.5 144.5 64.5 195.5s97.5 76.5 163.5 76.5c70 0 124.333 -25.833 163 -77.5s58 -118.5 58 -200.5c0 -18 -0.333008 -31.333 -1 -40h-334
c5.33301 -44 20.166 -77.667 44.499 -101s54.166 -35 89.499 -35c46.667 0 89.334 18.333 128.001 55l53 -71c-50 -53.333 -111.667 -80 -185 -80zM153.001 300.001h225c-2.66699 43.333 -13.667 78.333 -33 105s-45 40 -77 40c-31.333 0 -57.333 -12.833 -78 -38.5
s-33 -61.167 -37 -106.5zM417.001 710.001l-117 -117h-83l100 163z" />
    <glyph glyph-name="ecircumflex" unicode="&#xea;" horiz-adv-x="529" 
d="M284 -11c-70 0 -128.166 24.668 -174.499 74.001s-69.5 114.666 -69.5 195.999v8c0 79.333 21.5 144.5 64.5 195.5s97.5 76.5 163.5 76.5c70 0 124.333 -25.833 163 -77.5s58 -118.5 58 -200.5c0 -18 -0.333008 -31.333 -1 -40h-334
c5.33301 -44 20.166 -77.667 44.499 -101s54.166 -35 89.499 -35c46.667 0 89.334 18.333 128.001 55l53 -71c-50 -53.333 -111.667 -80 -185 -80zM153.001 300.001h225c-2.66699 43.333 -13.667 78.333 -33 105s-45 40 -77 40c-31.333 0 -57.333 -12.833 -78 -38.5
s-33 -61.167 -37 -106.5zM422.001 594.001h-86l-69 76l-69 -76h-84l103 146h102z" />
    <glyph glyph-name="edieresis" unicode="&#xeb;" horiz-adv-x="529" 
d="M489 261l-0.999023 -39.999h-334c5.33301 -44 20.166 -77.667 44.499 -101s54.166 -35 89.499 -35c46.667 0 89.334 18.333 128.001 55l53 -71c-50 -53.333 -111.667 -80 -185 -80c-70 0 -128.167 24.667 -174.5 74s-69.5 114.666 -69.5 195.999v8
c0 79.333 21.5 144.5 64.5 195.5s97.5 76.5 163.5 76.5c70 0 124.333 -25.833 163 -77.5s58 -118.5 58 -200.5zM378.001 300.001c-2.66699 43.333 -13.667 78.333 -33 105s-45 40 -77 40c-31.333 0 -57.333 -12.833 -78 -38.5s-33 -61.167 -37 -106.5h225zM416.001 598.001
h-112v111h112v-111zM232.001 598.001h-112v111h112v-111z" />
    <glyph glyph-name="igrave" unicode="&#xec;" horiz-adv-x="255" 
d="M184 0h-114v530h114v-530zM174 593h-83l-117 117l100 46z" />
    <glyph glyph-name="iacute" unicode="&#xed;" horiz-adv-x="255" 
d="M184 0h-114v530h114v-530zM279 710l-117 -117h-83l100 163z" />
    <glyph glyph-name="icircumflex" unicode="&#xee;" horiz-adv-x="255" 
d="M184 0h-114v530h114v-530zM282 594h-86l-69 76l-69 -76h-84l103 146h102z" />
    <glyph glyph-name="idieresis" unicode="&#xef;" horiz-adv-x="255" 
d="M184 0h-114v530h114v-530zM276 598h-112v111h112v-111zM92 598h-112v111h112v-111z" />
    <glyph glyph-name="eth" unicode="&#xf0;" horiz-adv-x="560" 
d="M517 249c0 -75.333 -22.168 -137.499 -66.501 -186.499s-102.833 -73.5 -175.5 -73.5c-67.333 0 -123.166 23.667 -167.499 71s-66.5 107.666 -66.5 180.999v4c0 70 19 126.667 57 170s85 65 141 65c42.667 0 83 -14 121 -42l-90 136l-106 -51l-44 64l110 51l-53 84h124
l23 -40l88 41l44 -64l-92 -42l76 -120c51.333 -82.667 77 -164 77 -244v-4zM404.999 239.001v4c0 45.333 -12 81.833 -36 109.5s-54.667 41.5 -92 41.5s-67.333 -13.667 -90 -41s-34 -64 -34 -110v-4c0 -45.333 11.833 -82.166 35.5 -110.499s54.167 -42.5 91.5 -42.5
s67.5 14.167 90.5 42.5s34.5 65.166 34.5 110.499z" />
    <glyph glyph-name="ntilde" unicode="&#xf1;" horiz-adv-x="548" 
d="M488 0l-113.999 0.000976562v323c0 36.667 -8.16699 65 -24.5 85s-39.5 30 -69.5 30c-30.667 0 -55.334 -10.667 -74.001 -32s-28 -50 -28 -86v-320h-113v530h113v-78c38.667 58.667 87 88 145 88c52 0 92.5 -16.833 121.5 -50.5s43.5 -78.834 43.5 -135.501v-354z
M449.001 708.001c-17.333 -77.333 -50.999 -116 -100.999 -116c-19.333 0 -46.333 8 -81 24c-22.667 12 -39.334 18 -50.001 18c-12 0 -21.167 -3.66699 -27.5 -11s-13.166 -20 -20.499 -38l-63 19c18 77.333 51.667 116 101 116c23.333 0 49.666 -7.66699 78.999 -23
c22 -12 39.667 -18 53 -18c11.333 0 20.5 3.66699 27.5 11s13.5 20 19.5 38z" />
    <glyph glyph-name="ograve" unicode="&#xf2;" horiz-adv-x="573" 
d="M531 260c0 -78 -23.333 -142.667 -70 -194s-105.334 -77 -176.001 -77c-70 0 -128.167 25.5 -174.5 76.5s-69.5 115.5 -69.5 193.5v9c0 78 23.333 142.667 70 194s105.334 77 176.001 77c70 0 128.167 -25.5 174.5 -76.5s69.5 -115.5 69.5 -193.5v-9zM418 258v10
c0 50 -12.5 91.167 -37.5 123.5s-56.833 48.5 -95.5 48.5c-39.333 0 -71 -15.833 -95 -47.5s-36 -72.5 -36 -122.5v-10c0 -49.333 12.5 -90.333 37.5 -123s56.833 -49 95.5 -49c39.333 0 71 16 95 48s36 72.667 36 122zM329 593h-83l-117 117l100 46z" />
    <glyph glyph-name="oacute" unicode="&#xf3;" horiz-adv-x="573" 
d="M285 -11c-70 0 -128.167 25.5 -174.5 76.5s-69.5 115.5 -69.5 193.5v9c0 78 23.333 142.667 70 194s105.334 77 176.001 77c70 0 128.167 -25.5 174.5 -76.5s69.5 -115.5 69.5 -193.5v-9c0 -78 -23.333 -142.667 -70 -194s-105.334 -77 -176.001 -77zM287 88
c39.333 0 71 16 95 48s36 72.667 36 122v10c0 50 -12.5 91.167 -37.5 123.5s-56.833 48.5 -95.5 48.5c-39.333 0 -71 -15.833 -95 -47.5s-36 -72.5 -36 -122.5v-10c0 -49.333 12.5 -90.333 37.5 -123s56.833 -49 95.5 -49zM443 710l-117 -117h-83l100 163z" />
    <glyph glyph-name="ocircumflex" unicode="&#xf4;" horiz-adv-x="573" 
d="M285 -11c-70 0 -128.167 25.5 -174.5 76.5s-69.5 115.5 -69.5 193.5v9c0 78 23.333 142.667 70 194s105.334 77 176.001 77c70 0 128.167 -25.5 174.5 -76.5s69.5 -115.5 69.5 -193.5v-9c0 -78 -23.333 -142.667 -70 -194s-105.334 -77 -176.001 -77zM287 88
c39.333 0 71 16 95 48s36 72.667 36 122v10c0 50 -12.5 91.167 -37.5 123.5s-56.833 48.5 -95.5 48.5c-39.333 0 -71 -15.833 -95 -47.5s-36 -72.5 -36 -122.5v-10c0 -49.333 12.5 -90.333 37.5 -123s56.833 -49 95.5 -49zM440 594h-86l-69 76l-69 -76h-84l103 146h102z" />
    <glyph glyph-name="otilde" unicode="&#xf5;" horiz-adv-x="573" 
d="M285 -11c-70 0 -128.167 25.5 -174.5 76.5s-69.5 115.5 -69.5 193.5v9c0 78 23.333 142.667 70 194s105.334 77 176.001 77c70 0 128.167 -25.5 174.5 -76.5s69.5 -115.5 69.5 -193.5v-9c0 -78 -23.333 -142.667 -70 -194s-105.334 -77 -176.001 -77zM287 88
c39.333 0 71 16 95 48s36 72.667 36 122v10c0 50 -12.5 91.167 -37.5 123.5s-56.833 48.5 -95.5 48.5c-39.333 0 -71 -15.833 -95 -47.5s-36 -72.5 -36 -122.5v-10c0 -49.333 12.5 -90.333 37.5 -123s56.833 -49 95.5 -49zM457 708
c-17.333 -77.333 -50.999 -116 -100.999 -116c-19.333 0 -46.333 8 -81 24c-22.667 12 -39.334 18 -50.001 18c-12 0 -21.167 -3.66699 -27.5 -11s-13.166 -20 -20.499 -38l-63 19c18 77.333 51.667 116 101 116c23.333 0 49.666 -7.66699 78.999 -23
c22 -12 39.667 -18 53 -18c11.333 0 20.5 3.66699 27.5 11s13.5 20 19.5 38z" />
    <glyph glyph-name="odieresis" unicode="&#xf6;" horiz-adv-x="573" 
d="M531 260c0 -78 -23.333 -142.667 -70 -194s-105.334 -77 -176.001 -77c-70 0 -128.167 25.5 -174.5 76.5s-69.5 115.5 -69.5 193.5v9c0 78 23.333 142.667 70 194s105.334 77 176.001 77c70 0 128.167 -25.5 174.5 -76.5s69.5 -115.5 69.5 -193.5v-9zM418 258v10
c0 50 -12.5 91.167 -37.5 123.5s-56.833 48.5 -95.5 48.5c-39.333 0 -71 -15.833 -95 -47.5s-36 -72.5 -36 -122.5v-10c0 -49.333 12.5 -90.333 37.5 -123s56.833 -49 95.5 -49c39.333 0 71 16 95 48s36 72.667 36 122zM434 598h-112v111h112v-111zM250 598h-112v111h112
v-111z" />
    <glyph glyph-name="divide" unicode="&#xf7;" horiz-adv-x="590" 
d="M514 299h-438v107h438v-107zM360 97h-118v122h118v-122zM360 486h-118v122h118v-122z" />
    <glyph glyph-name="oslash" unicode="&#xf8;" horiz-adv-x="573" 
d="M531 268v-8c0 -78 -23.333 -142.667 -70 -194s-105.334 -77 -176.001 -77c-47.333 0 -91.333 13.333 -132 40l-29 -34h-95l68 86c-37.333 48.667 -56 108 -56 178v7c0 78.667 23.333 143.834 70 195.501s105.334 77.5 176.001 77.5c49.333 0 93 -13.667 131 -41l30 37h95
l-69 -88c38 -48.667 57 -108.334 57 -179.001zM356 414c-20 18.667 -43.668 28 -71.001 28c-39.333 0 -71.666 -16.333 -96.999 -49s-38 -74.334 -38 -125.001v-8c0 -29.333 6.66699 -56.666 20 -81.999zM421.999 258l0.000976562 9c0 30 -6.66699 57.667 -20 83l-186 -237
c20 -18.667 43.667 -28 71 -28c39.333 0 71.666 16.333 96.999 49s38 74 38 124z" />
    <glyph glyph-name="ugrave" unicode="&#xf9;" horiz-adv-x="548" 
d="M483 0l-114 0.000976562v77c-38 -58 -86.333 -87 -145 -87c-51.333 0 -91.5 16.667 -120.5 50s-43.5 78.666 -43.5 135.999v354h114v-323c0 -36.667 8.33301 -65 25 -85s39.667 -30 69 -30c30 0 54.333 10.5 73 31.5s28 49.5 28 85.5v321h114v-530zM324 592.001h-83
l-117 117l100 46z" />
    <glyph glyph-name="uacute" unicode="&#xfa;" horiz-adv-x="548" 
d="M224 -10c-51.333 0 -91.5 16.668 -120.5 50.001s-43.5 78.666 -43.5 135.999v354h114v-323c0 -36.667 8.33301 -65 25 -85s39.667 -30 69 -30c30 0 54.333 10.5 73 31.5s28 49.5 28 85.5v321h114v-530h-114v77c-38 -58 -86.333 -87 -145 -87zM421 709.001l-117 -117h-83
l100 163z" />
    <glyph glyph-name="ucircumflex" unicode="&#xfb;" horiz-adv-x="548" 
d="M224 -10c-51.333 0 -91.5 16.668 -120.5 50.001s-43.5 78.666 -43.5 135.999v354h114v-323c0 -36.667 8.33301 -65 25 -85s39.667 -30 69 -30c30 0 54.333 10.5 73 31.5s28 49.5 28 85.5v321h114v-530h-114v77c-38 -58 -86.333 -87 -145 -87zM428 594.001h-86l-69 76
l-69 -76h-84l103 146h102z" />
    <glyph glyph-name="udieresis" unicode="&#xfc;" horiz-adv-x="548" 
d="M483 0l-114 0.000976562v77c-38 -58 -86.333 -87 -145 -87c-51.333 0 -91.5 16.667 -120.5 50s-43.5 78.666 -43.5 135.999v354h114v-323c0 -36.667 8.33301 -65 25 -85s39.667 -30 69 -30c30 0 54.333 10.5 73 31.5s28 49.5 28 85.5v321h114v-530zM422 598.001h-112v111
h112v-111zM238 598.001h-112v111h112v-111z" />
    <glyph glyph-name="yacute" unicode="&#xfd;" horiz-adv-x="526" 
d="M502 530l-185 -541c-18 -51.333 -39.167 -88 -63.5 -110s-56.5 -33 -96.5 -33c-39.333 0 -76.333 9 -111 27l34 87c22 -12 43.667 -18 65 -18c29.333 0 52 19 68 57l-190 531h119l124 -393l119 393h117zM410 709l-117 -117h-83l100 163z" />
    <glyph glyph-name="thorn" unicode="&#xfe;" horiz-adv-x="584" 
d="M541 258c0 -84.667 -20.167 -150.5 -60.5 -197.5s-89.5 -70.5 -147.5 -70.5c-61.333 0 -113 30 -155 90v-231h-113v873h113v-277c42 63.333 93.667 95 155 95c57.333 0 106.333 -23.667 147 -71s61 -113.333 61 -198v-13zM427 260v9c0 51.333 -11.833 92.5 -35.5 123.5
s-53.167 46.5 -88.5 46.5s-65.333 -15.667 -90 -47s-37 -72.333 -37 -123v-10c0 -50.667 12.333 -91.5 37 -122.5s54.667 -46.5 90 -46.5s64.833 15.333 88.5 46s35.5 72 35.5 124z" />
    <glyph glyph-name="ydieresis" unicode="&#xff;" horiz-adv-x="526" 
d="M157 -154c-39.333 0 -76.333 9 -111 27l34 87c22 -12 43.667 -18 65 -18c29.333 0 52 19 68 57l-190 531h119l124 -393l119 393h117l-185 -541c-17.333 -51.333 -38.333 -88 -63 -110s-57 -33 -97 -33zM411 598h-112v111h112v-111zM227 598h-112v111h112v-111z" />
    <glyph glyph-name="dotlessi" unicode="&#x131;" horiz-adv-x="255" 
d="M184 0h-114v530h114v-530z" />
    <glyph glyph-name="Lslash" unicode="&#x141;" horiz-adv-x="549" 
d="M517 0h-414v283l-66 -21v108l66 20v310h114v-275l170 52v-108l-170 -51v-212h300v-106z" />
    <glyph glyph-name="lslash" unicode="&#x142;" horiz-adv-x="317" 
d="M214 334v-334h-112v296l-72 -25v108l72 25v318h112v-280l73 24v-108z" />
    <glyph glyph-name="OE" unicode="&#x152;" horiz-adv-x="936" 
d="M888 0l-506 -0.000976562c-98.667 0 -178.667 31.833 -240 95.5s-92 147.167 -92 250.5v6c0 102.667 30.667 186.334 92 251.001s141.333 97 240 97h502v-105h-310v-190h273v-105h-273v-195h314v-105zM458 104.999v489.001h-79c-62.667 0 -113 -21.333 -151 -64
s-57 -101.334 -57 -176.001v-7c0 -75.333 19 -134.5 57 -177.5s88.333 -64.5 151 -64.5h79z" />
    <glyph glyph-name="oe" unicode="&#x153;" horiz-adv-x="903" 
d="M281 -11c-67.333 0 -124.167 25.668 -170.5 77.001s-69.5 115.666 -69.5 192.999v8c0 78 23.333 142.833 70 194.5s104.334 77.5 173.001 77.5c80 0 142 -34.667 186 -104c39.333 69.333 97.333 104 174 104c69.333 0 123.333 -25.833 162 -77.5s58 -118.5 58 -200.5
l-1 -40h-334c5.33301 -44 20.166 -77.667 44.499 -101s54.5 -35 90.5 -35c46 0 88.667 18.333 128 55l51 -71c-50 -53.333 -111.667 -80 -185 -80c-40.667 0 -77.5 9.33301 -110.5 28s-59.167 44.667 -78.5 78c-20 -33.333 -46.5 -59.333 -79.5 -78s-69.167 -28 -108.5 -28z
M283.999 88.001c38.667 0 69.834 15.833 93.501 47.5s35.5 72.834 35.5 123.501v9c0 50 -12.167 91.167 -36.5 123.5s-55.5 48.5 -93.5 48.5c-38.667 0 -69.834 -15.833 -93.501 -47.5s-35.5 -72.834 -35.5 -123.501v-9c0 -50 12.333 -91.167 37 -123.5
s55.667 -48.5 93 -48.5zM526.999 300.001h225.999c-3.33301 44 -14.5 79.167 -33.5 105.5s-44.833 39.5 -77.5 39.5c-31.333 0 -57.166 -12.833 -77.499 -38.5s-32.833 -61.167 -37.5 -106.5z" />
    <glyph glyph-name="Scaron" unicode="&#x160;" horiz-adv-x="547" 
d="M280 -9c-90.667 0 -171.337 29.333 -242.004 88l52 92c62.667 -50 125.667 -75 189 -75c32.667 0 58.834 7.5 78.501 22.5s29.5 35.833 29.5 62.5c0 24 -8.83301 44.333 -26.5 61s-53.167 36.334 -106.5 59.001c-72 30.667 -123 60.667 -153 90s-45 71 -45 125
c0 56.667 20.333 103 61 139s92.334 54 155.001 54c78.667 0 148.334 -22.667 209.001 -68l-46 -97c-57.333 40 -111.666 60 -162.999 60c-30.667 0 -55 -7.5 -73 -22.5s-27 -34.167 -27 -57.5c0 -25.333 9 -46 27 -62s55 -35.667 111 -59c70 -30 119.667 -60.333 149 -91
s44 -71.667 44 -123c0 -60.667 -20.833 -108.834 -62.5 -144.501s-95.167 -53.5 -160.5 -53.5zM428.997 899l-103 -146h-102l-103 146h86l68 -76l69 76h85z" />
    <glyph glyph-name="scaron" unicode="&#x161;" horiz-adv-x="436" 
d="M398 148c0 -49.333 -16.8281 -88.0029 -50.4951 -116.003s-76.834 -42 -129.501 -42c-68 0 -130.667 21 -188 63l38 86c52.667 -37.333 103 -56 151 -56c22.667 0 40.667 5 54 15s20 23.667 20 41v2c0 4 -0.5 7.83301 -1.5 11.5s-2.66699 7.16699 -5 10.5l-6.5 9
c-2 2.66699 -5.5 5.66699 -10.5 9l-12 8c-3 2 -7.83301 4.66699 -14.5 8s-11.834 6 -15.501 8s-9.83398 5 -18.501 9s-15 7 -19 9c-22.667 10.667 -40.834 19.834 -54.501 27.501s-28.167 18 -43.5 31s-26.666 27.667 -33.999 44s-11 35.166 -11 56.499v2
c0 47.333 16.333 84.833 49 112.5s74.334 41.5 125.001 41.5c58 0 112 -15.667 162 -47l-34 -88c-47.333 28 -90.333 42 -129 42c-20.667 0 -37 -4.66699 -49 -14s-18 -21.666 -18 -36.999v-2c0 -4 0.5 -7.66699 1.5 -11s2.66699 -6.5 5 -9.5l6.5 -8.5
c2 -2.66699 5.33301 -5.66699 10 -9l12 -8.5c3.33301 -2.33301 8.16602 -5.16602 14.499 -8.49902s11.5 -6.16602 15.5 -8.49902s10.167 -5.5 18.5 -9.5s14.833 -7.33301 19.5 -10c23.333 -11.333 41.666 -21 54.999 -29s27.666 -18.5 42.999 -31.5s26.5 -27.5 33.5 -43.5
s10.5 -34.333 10.5 -55v-2zM375.005 739.997l-103 -146h-102l-103 146h86l68 -76l69 76h85z" />
    <glyph glyph-name="Ydieresis" unicode="&#x178;" horiz-adv-x="614" 
d="M599 700l-234 -420v-280h-116v279l-235 421h132l162 -302l163 302h128zM455 756h-112v111h112v-111zM271 756h-112v111h112v-111z" />
    <glyph glyph-name="Zcaron" unicode="&#x17d;" horiz-adv-x="594" 
d="M53 0v86l344 511h-332v103h477v-86l-344 -511h344v-103h-489zM455 899l-103 -146h-102l-103 146h86l68 -76l69 76h85z" />
    <glyph glyph-name="zcaron" unicode="&#x17e;" horiz-adv-x="480" 
d="M440 0h-397v78l259 358h-251v94h389v-78l-260 -358h260v-94zM401 740l-103 -146h-102l-103 146h86l68 -76l69 76h85z" />
    <glyph glyph-name="florin" unicode="&#x192;" horiz-adv-x="468" 
d="M439 596c-26.667 6.66699 -47 10 -61 10c-41.333 0 -66 -24.667 -74 -74l-11 -78h114v-94h-128l-33 -220c-7.33301 -51.333 -24 -88.333 -50 -111s-62.667 -34 -110 -34c-20 0 -37.667 1.66699 -53 5v95c11.333 -2 23.333 -3 36 -3c37.333 0 59.333 21.333 66 64l29 204
h-70v94h85l14 100c15.333 100.667 69.333 151 162 151c29.333 0 57.333 -3.66699 84 -11v-98z" />
    <glyph glyph-name="circumflex" unicode="&#x2c6;" horiz-adv-x="502" 
d="M405 594h-86l-69 76l-69 -76h-84l103 146h102z" />
    <glyph glyph-name="caron" unicode="&#x2c7;" horiz-adv-x="502" 
d="M405 740l-103 -146h-102l-103 146h86l68 -76l69 76h85z" />
    <glyph glyph-name="breve" unicode="&#x2d8;" horiz-adv-x="502" 
d="M406 734c-2.66699 -45.333 -18.333 -80.666 -47 -105.999s-64.667 -38 -108 -38s-79.333 12.667 -108 38s-44.667 60.666 -48 105.999h78c10 -43.333 36 -65 78 -65s68 21.667 78 65h77z" />
    <glyph glyph-name="dotaccent" unicode="&#x2d9;" horiz-adv-x="502" 
d="M310 592h-119v115h119v-115z" />
    <glyph glyph-name="ring" unicode="&#x2da;" horiz-adv-x="502" 
d="M360 700v-3c0 -29.333 -10.833 -54.666 -32.5 -75.999s-47.167 -32 -76.5 -32s-55 10.667 -77 32s-33 46.666 -33 75.999v3c0 30 10.833 55.667 32.5 77s47.5 32 77.5 32c29.333 0 54.833 -10.667 76.5 -32s32.5 -47 32.5 -77zM308 698v2c0 16 -5.5 30 -16.5 42
s-24.5 18 -40.5 18s-29.667 -6 -41 -18s-17 -26 -17 -42v-2c0 -16 5.66699 -30 17 -42s25 -18 41 -18s29.5 6 40.5 18s16.5 26 16.5 42z" />
    <glyph glyph-name="ogonek" unicode="&#x2db;" horiz-adv-x="502" 
d="M364 -159c-59.333 -2 -104.833 6.50098 -136.5 25.501s-47.5 46.167 -47.5 81.5c0 21.333 5.33301 42.666 16 63.999h78c-4 -15.333 -6 -30.333 -6 -45c0 -44 32 -67.667 96 -71v-55z" />
    <glyph glyph-name="tilde" unicode="&#x2dc;" horiz-adv-x="502" 
d="M422 708c-17.333 -77.333 -50.999 -116 -100.999 -116c-19.333 0 -46.333 8 -81 24c-22.667 12 -39.334 18 -50.001 18c-12 0 -21.167 -3.66699 -27.5 -11s-13.166 -20 -20.499 -38l-63 19c18 77.333 51.667 116 101 116c23.333 0 49.666 -7.66699 78.999 -23
c22 -12 39.667 -18 53 -18c11.333 0 20.5 3.66699 27.5 11s13.5 20 19.5 38z" />
    <glyph glyph-name="hungarumlaut" unicode="&#x2dd;" horiz-adv-x="502" 
d="M437 710l-117 -117h-80l100 163zM265 710l-115 -117h-81l99 163z" />
    <glyph glyph-name="pi" unicode="&#x3c0;" 
d="M0 0v700h500v-700h-500zM81 49h339l-170 255zM49 96l171 254l-171 254v-508zM450 96v508l-171 -254zM250 395l170 255h-339z" />
    <glyph glyph-name="afii10023" unicode="&#x401;" horiz-adv-x="568" 
d="M77 0v700h440v-105h-325v-190h288v-105h-288v-195h329v-105h-444zM442 757h-112v111h112v-111zM258 757h-112v111h112v-111z" />
    <glyph glyph-name="afii10051" unicode="&#x402;" horiz-adv-x="746" 
d="M483 -4c-34 0.666992 -65.001 6 -93.001 16l12 97c16 -5.33301 32.667 -8 50 -8c33.333 0 60.666 10.167 81.999 30.5s32 53.5 32 99.5c0 44.667 -10.333 78.167 -31 100.5s-49 33.5 -85 33.5c-53.333 0 -101.333 -18.667 -144 -56v-309h-116v594h-160v106h491v-106h-215
v-183c52.667 38 110.334 57 173.001 57c63.333 0 113.333 -21.167 150 -63.5s55 -101.833 55 -178.5c0 -74 -18.167 -130.833 -54.5 -170.5s-85.166 -59.5 -146.499 -59.5z" />
    <glyph glyph-name="afii10052" unicode="&#x403;" horiz-adv-x="491" 
d="M192 594v-594h-115v700h402v-106h-287zM404 869l-117 -117h-83l100 163z" />
    <glyph glyph-name="afii10053" unicode="&#x404;" horiz-adv-x="614" 
d="M357 -10c-89.333 0 -162.834 32.834 -220.501 98.501s-86.5 151.5 -86.5 257.5v8c0 104 29.5 189.167 88.5 255.5s134.5 99.5 226.5 99.5c44.667 0 82.5 -6.83301 113.5 -20.5s62.5 -33.834 94.5 -60.501l-49 -88c-51.333 41.333 -98 62 -140 62
c-54.667 0 -101.167 -17.5 -139.5 -52.5s-62.166 -83.833 -71.499 -146.5h258v-102h-259c8.66699 -64 31.667 -114 69 -150s83.666 -54 138.999 -54c46.667 0 96.334 22.333 149.001 67l55 -85c-59.333 -59.333 -135 -89 -227 -89z" />
    <glyph glyph-name="afii10054" unicode="&#x405;" horiz-adv-x="547" 
d="M280 -9c-90.667 0 -171.337 29.333 -242.004 88l52 92c62.667 -50 125.667 -75 189 -75c32.667 0 58.834 7.5 78.501 22.5s29.5 35.833 29.5 62.5c0 24 -8.83301 44.333 -26.5 61s-53.167 36.334 -106.5 59.001c-72 30.667 -123 60.667 -153 90s-45 71 -45 125
c0 56.667 20.333 103 61 139s92.334 54 155.001 54c78.667 0 148.334 -22.667 209.001 -68l-46 -97c-57.333 40 -111.666 60 -162.999 60c-30.667 0 -55 -7.5 -73 -22.5s-27 -34.167 -27 -57.5c0 -25.333 9 -46 27 -62s55 -35.667 111 -59c70 -30 119.667 -60.333 149 -91
s44 -71.667 44 -123c0 -60.667 -20.833 -108.834 -62.5 -144.501s-95.167 -53.5 -160.5 -53.5z" />
    <glyph glyph-name="afii10055" unicode="&#x406;" horiz-adv-x="281" 
d="M82 0v700h116v-700h-116z" />
    <glyph glyph-name="afii10056" unicode="&#x407;" horiz-adv-x="281" 
d="M82 0v700h116v-700h-116zM289 757h-112v111h112v-111zM105 757h-112v111h112v-111z" />
    <glyph glyph-name="afii10057" unicode="&#x408;" horiz-adv-x="475" 
d="M198 -9c-72.667 0 -131.666 27 -176.999 81l56 89c33.333 -40.667 71.666 -61 114.999 -61c30 0 53.667 10 71 30s26 49.333 26 88v482h119v-486c0 -72.667 -19 -128 -57 -166s-89 -57 -153 -57z" />
    <glyph glyph-name="afii10058" unicode="&#x409;" horiz-adv-x="980" 
d="M471 0l0.00195312 594.001h-197v-119c0 -98.667 -4.16699 -180 -12.5 -244s-21.5 -113.167 -39.5 -147.5s-38.5 -58 -61.5 -71s-51.833 -19.5 -86.5 -19.5c-21.333 0 -45.333 3.33301 -72 10l8 99c10.667 -4 22.667 -6 36 -6c18 0 33.167 4.16699 45.5 12.5
s24.666 25.333 36.999 51s21.5 66.667 27.5 123s9 128.166 9 215.499v202h421v-247h123c74 0 132.667 -20 176 -60s65 -94.667 65 -164c0 -72 -23.333 -128.167 -70 -168.5s-106.334 -60.5 -179.001 -60.5h-230zM586.002 105.001h118c40 0 71.667 10.833 95 32.5
s35 51.167 35 88.5c0 39.333 -11.5 69.5 -34.5 90.5s-54.5 31.5 -94.5 31.5h-119v-243z" />
    <glyph glyph-name="afii10059" unicode="&#x40a;" horiz-adv-x="993" 
d="M582 700l-0.000976562 -266.999h150c70.667 0 126.834 -19 168.501 -57s62.5 -90.333 62.5 -157c0 -68.667 -22.5 -122.334 -67.5 -161.001s-102.167 -58 -171.5 -58h-257v325h-275v-325h-115v700h115v-267h275v267h115zM581.999 105.001h144.999
c36.667 0 65.834 10 87.501 30s32.5 47 32.5 81c0 36 -10.667 63.667 -32 83s-50.333 29 -87 29h-146v-223z" />
    <glyph glyph-name="afii10060" unicode="&#x40b;" horiz-adv-x="746" 
d="M306 594l-0.000976562 -178c54.667 37.333 112.334 56 173.001 56c61.333 0 110.833 -18.833 148.5 -56.5s56.5 -94.167 56.5 -169.5v-246h-115v226c0 88.667 -37.333 133 -112 133c-60 0 -110.333 -18 -151 -54v-305h-115v594h-161v106h491v-106h-215z" />
    <glyph glyph-name="afii10061" unicode="&#x40c;" horiz-adv-x="627" 
d="M77 0v700h115v-343l270 343h140l-243 -301l254 -399h-138l-196 306l-87 -104v-202h-115zM453 869l-117 -117h-83l100 163z" />
    <glyph glyph-name="afii10062" unicode="&#x40e;" horiz-adv-x="625" 
d="M178 -10c-38.667 0 -75.666 8.33301 -110.999 25l33 93c21.333 -10.667 44.333 -16 69 -16c33.333 0 64.666 25.333 93.999 76l-244 532h128l176 -396l159 396h122l-232 -551c-24 -56 -51 -96.5 -81 -121.5s-67.667 -37.5 -113 -37.5zM323.001 748
c-38.667 0 -71 11.833 -97 35.5s-42.333 56.167 -49 97.5l72 14c11.333 -44.667 36 -67 74 -67s62.667 22.333 74 67l72 -14c-6.66699 -42 -23 -74.667 -49 -98s-58.333 -35 -97 -35z" />
    <glyph glyph-name="afii10145" unicode="&#x40f;" horiz-adv-x="655" 
d="M77 0v700h116v-595h270v595h115v-700h-194v-136h-111v136h-196z" />
    <glyph glyph-name="afii10017" unicode="&#x410;" horiz-adv-x="674" 
d="M25 0l256 704h112l256 -704h-120l-59 165h-270l-59 -165h-116zM235 268h199l-99 281z" />
    <glyph glyph-name="afii10018" unicode="&#x411;" horiz-adv-x="615" 
d="M192 594l-0.000976562 -171h150c70.667 0 126.834 -18.5 168.501 -55.5s62.5 -88.167 62.5 -153.5c0 -68.667 -22.333 -121.5 -67 -158.5s-102 -55.5 -172 -55.5h-257v700h448v-106h-333zM191.999 105h145.001c37.333 0 66.666 9.16699 87.999 27.5s32 44.5 32 78.5
c0 34.667 -10.667 61.167 -32 79.5s-50.333 27.5 -87 27.5h-146v-213z" />
    <glyph glyph-name="afii10019" unicode="&#x412;" horiz-adv-x="623" 
d="M77 0v700h249c68 0 122.5 -16 163.5 -48s61.5 -76.333 61.5 -133c0 -72.667 -34.333 -125 -103 -157c88.667 -31.333 133 -87 133 -167c0 -62 -22.5 -110 -67.5 -144s-105.5 -51 -181.5 -51h-255zM190 103h146c40.667 0 72.5 8.66699 95.5 26s34.5 42 34.5 74
s-11.667 56.833 -35 74.5s-57 26.5 -101 26.5h-140v-201zM190 402l121 -0.000976562c38.667 0 69.167 8.5 91.5 25.5s33.5 41.5 33.5 73.5c0 30.667 -10.333 54.334 -31 71.001s-49.667 25 -87 25h-128v-195z" />
    <glyph glyph-name="afii10020" unicode="&#x413;" horiz-adv-x="491" 
d="M192 594v-594h-115v700h402v-106h-287z" />
    <glyph glyph-name="afii10021" unicode="&#x414;" horiz-adv-x="663" 
d="M455 594h-199c0 -113.333 -5.16699 -209 -15.5 -287s-28.5 -145 -54.5 -201h269v488zM535 0h-417l-12 -136h-99v242h59c30 65.333 50.833 143 62.5 233s17.5 210.333 17.5 361h425v-594h75l-15 -242h-96v136z" />
    <glyph glyph-name="afii10022" unicode="&#x415;" horiz-adv-x="568" 
d="M77 0v700h440v-105h-325v-190h288v-105h-288v-195h329v-105h-444z" />
    <glyph glyph-name="afii10024" unicode="&#x416;" horiz-adv-x="939" 
d="M527 0h-115v197l-84 115l-179 -312h-137l235 396l-222 304h136l251 -354v354h115v-354l251 354h134l-222 -304l236 -396h-136l-180 312l-83 -115v-197z" />
    <glyph glyph-name="afii10025" unicode="&#x417;" horiz-adv-x="543" 
d="M266 -10c-98.667 0 -180.001 28 -244.001 84l51 92c54.667 -46.667 112 -70 172 -70c36.667 0 69.334 9.16699 98.001 27.5s43 44.166 43 77.499c0 40.667 -14.833 68.5 -44.5 83.5s-73.5 22.833 -131.5 23.5h-31v96h34c54.667 0 95 8.5 121 25.5s39 44.5 39 82.5
c0 28.667 -12.167 51.334 -36.5 68.001s-54.5 25 -90.5 25c-55.333 0 -107 -20.333 -155 -61l-46 83c32 28 65.833 48.667 101.5 62s79.5 20 131.5 20c61.333 0 111.5 -17.167 150.5 -51.5s58.5 -77.5 58.5 -129.5c0 -77.333 -38.333 -132.333 -115 -165
c86 -26.667 129 -82.667 129 -168c0 -60.667 -21.667 -110 -65 -148s-100 -57 -170 -57z" />
    <glyph glyph-name="afii10026" unicode="&#x418;" horiz-adv-x="669" 
d="M77 0v700h114v-366c0 -14 -0.166992 -35.167 -0.5 -63.5s-0.5 -49.833 -0.5 -64.5l294 494h108v-700h-113v367c0 56.667 0.333008 99 1 127l-295 -494h-108z" />
    <glyph glyph-name="afii10027" unicode="&#x419;" horiz-adv-x="669" 
d="M77 0v700h114v-366c0 -14 -0.166992 -35.167 -0.5 -63.5s-0.5 -49.833 -0.5 -64.5l294 494h108v-700h-113v367c0 56.667 0.333008 99 1 127l-295 -494h-108zM339 748c-38.667 0 -71 11.833 -97 35.5s-42.333 56.167 -49 97.5l72 14c11.333 -44.667 36 -67 74 -67
s62.667 22.333 74 67l72 -14c-6.66699 -42 -23 -74.667 -49 -98s-58.333 -35 -97 -35z" />
    <glyph glyph-name="afii10028" unicode="&#x41a;" horiz-adv-x="627" 
d="M77 0v700h115v-343l270 343h140l-243 -301l254 -399h-138l-196 306l-87 -104v-202h-115z" />
    <glyph glyph-name="afii10029" unicode="&#x41b;" horiz-adv-x="662" 
d="M74 -7c-21.333 0 -45.332 3.33398 -71.999 10.001l8 99c10.667 -4 22.667 -6 36 -6c18 0 33.167 4.16699 45.5 12.5s24.666 25.333 36.999 51s21.5 66.667 27.5 123s9 128.166 9 215.499v202h421v-700h-115v594h-197v-119c0 -98.667 -4.16699 -180 -12.5 -244
s-21.5 -113.167 -39.5 -147.5s-38.5 -58 -61.5 -71s-51.833 -19.5 -86.5 -19.5z" />
    <glyph glyph-name="afii10030" unicode="&#x41c;" horiz-adv-x="753" 
d="M77 0v700h121l178 -321l179 321h122v-700h-114v495l-186 -324h-3l-185 322v-493h-112z" />
    <glyph glyph-name="afii10031" unicode="&#x41d;" horiz-adv-x="659" 
d="M77 0v700h115v-294h275v294h115v-700h-115v298h-275v-298h-115z" />
    <glyph glyph-name="afii10032" unicode="&#x41e;" horiz-adv-x="720" 
d="M359 -11c-90.667 0 -164.833 33.167 -222.5 99.5s-86.5 151.5 -86.5 255.5v10c0 104 29 189.5 87 256.5s132.667 100.5 224 100.5c90.667 0 164.667 -33.167 222 -99.5s86 -151.5 86 -255.5v-10c0 -104 -29 -189.5 -87 -256.5s-132.333 -100.5 -223 -100.5zM361.001 96
c56 0 101.5 22.667 136.5 68s52.5 105.333 52.5 180v10c0 75.333 -17.833 135.833 -53.5 181.5s-81.5 68.5 -137.5 68.5c-55.333 0 -100.5 -22.667 -135.5 -68s-52.5 -105.333 -52.5 -180v-10c0 -75.333 17.667 -135.833 53 -181.5s81 -68.5 137 -68.5z" />
    <glyph glyph-name="afii10033" unicode="&#x41f;" horiz-adv-x="654" 
d="M77 0v700h500v-700h-115v594h-270v-594h-115z" />
    <glyph glyph-name="afii10034" unicode="&#x420;" horiz-adv-x="582" 
d="M77 0v700.001h223c76.667 0 137.667 -20.833 183 -62.5s68 -98.834 68 -171.501c0 -75.333 -24.167 -134 -72.5 -176s-110.5 -63 -186.5 -63h-100v-227h-115zM192 332.001l103 0.000976562c42.667 0 76.667 11.833 102 35.5s38 55.5 38 95.5
c0 43.333 -12.333 76.166 -37 98.499s-58.667 33.5 -102 33.5h-104v-263z" />
    <glyph glyph-name="afii10035" unicode="&#x421;" horiz-adv-x="617" 
d="M356 -10c-88 0 -160.999 33 -218.999 99s-87 151.333 -87 256v9c0 104.667 29.333 190.167 88 256.5s133.334 99.5 224.001 99.5c83.333 0 154.666 -27 213.999 -81l-55 -94c-51.333 44.667 -103.666 67 -156.999 67c-56.667 0 -103 -22.5 -139 -67.5
s-54 -104.833 -54 -179.5v-9c0 -75.333 18 -135.5 54 -180.5s82.667 -67.5 140 -67.5c31.333 0 59.166 5.66699 83.499 17s50.166 29 77.499 53l55 -85c-63.333 -62 -138.333 -93 -225 -93z" />
    <glyph glyph-name="afii10036" unicode="&#x422;" horiz-adv-x="549" 
d="M217 0v592h-184v108h483v-108h-183v-592h-116z" />
    <glyph glyph-name="afii10037" unicode="&#x423;" horiz-adv-x="625" 
d="M178 -10c-38.667 0 -75.666 8.33301 -110.999 25l33 93c21.333 -10.667 44.333 -16 69 -16c33.333 0 64.666 25.333 93.999 76l-244 532h128l176 -396l159 396h122l-232 -551c-24 -56 -51 -96.5 -81 -121.5s-67.667 -37.5 -113 -37.5z" />
    <glyph glyph-name="afii10038" unicode="&#x424;" horiz-adv-x="810" 
d="M347 -21l-0.000976562 77c-95.333 1.33301 -170.666 29 -225.999 83s-83 124.333 -83 211v12c0 86.667 28 156.5 84 209.5s131 79.833 225 80.5v68h115v-68c93.333 -0.666992 168.166 -27.5 224.499 -80.5s84.5 -123.167 84.5 -210.5v-11
c0 -86.667 -27.667 -157 -83 -211s-130.666 -81.667 -225.999 -83v-77h-115zM461.999 160c59.333 0 106 17.332 140 51.999s51 81.334 51 140.001v8c0 56.667 -17 102 -51 136s-80.667 51.333 -140 52v-388zM346.999 159.999l-0.00195312 388.001
c-59.333 -0.666992 -106.166 -18 -140.499 -52s-51.5 -79.333 -51.5 -136v-12c0 -57.333 17.333 -102.833 52 -136.5s81.334 -50.834 140.001 -51.501z" />
    <glyph glyph-name="afii10039" unicode="&#x425;" horiz-adv-x="625" 
d="M30 0l214 358l-205 342h132l143 -243l143 243h129l-204 -341l213 -359h-132l-152 260l-152 -260h-129z" />
    <glyph glyph-name="afii10040" unicode="&#x426;" horiz-adv-x="670" 
d="M543 -136v136h-466v700h115v-594h271v594h115v-594h76l-15 -242h-96z" />
    <glyph glyph-name="afii10041" unicode="&#x427;" horiz-adv-x="610" 
d="M417 376l0.000976562 324h116v-700h-116v272c-60.667 -32.667 -116.334 -49 -167.001 -49c-62 0 -111.167 17.5 -147.5 52.5s-54.5 87.5 -54.5 157.5v267h115v-219c0 -100 37.667 -150 113 -150c50 0 97 15 141 45z" />
    <glyph glyph-name="afii10042" unicode="&#x428;" horiz-adv-x="957" 
d="M880 700v-700h-803v700h115v-596h229v596h116v-596h228v596h115z" />
    <glyph glyph-name="afii10043" unicode="&#x429;" horiz-adv-x="971" 
d="M844 -137v137h-767v700h115v-594h229v594h115v-594h229v594h115v-594h75l-15 -243h-96z" />
    <glyph glyph-name="afii10044" unicode="&#x42a;" horiz-adv-x="682" 
d="M403 0h-230.999v594h-144v106h260v-247h123c74 0 132.667 -20 176 -60s65 -94.667 65 -164c0 -72 -23.333 -128.167 -70 -168.5s-106.334 -60.5 -179.001 -60.5zM288.001 105h118c40 0 71.667 10.833 95 32.5s35 51.167 35 88.5c0 39.333 -11.5 69.5 -34.5 90.5
s-54.5 31.5 -94.5 31.5h-119v-243z" />
    <glyph glyph-name="afii10045" unicode="&#x42b;" horiz-adv-x="815" 
d="M192 700l0.000976562 -247h123c74 0 132.667 -20 176 -60s65 -94.667 65 -164c0 -72 -23.333 -128.167 -70 -168.5s-106.334 -60.5 -179.001 -60.5h-230v700h115zM192.001 105h118c40 0 71.667 10.833 95 32.5s35 51.167 35 88.5c0 39.333 -11.5 69.5 -34.5 90.5
s-54.5 31.5 -94.5 31.5h-119v-243zM623.001 0v700h115v-700h-115z" />
    <glyph glyph-name="afii10046" unicode="&#x42c;" horiz-adv-x="586" 
d="M192 700l0.000976562 -247h123c74 0 132.667 -20 176 -60s65 -94.667 65 -164c0 -72 -23.333 -128.167 -70 -168.5s-106.334 -60.5 -179.001 -60.5h-230v700h115zM192.001 105h118c40 0 71.667 10.833 95 32.5s35 51.167 35 88.5c0 39.333 -11.5 69.5 -34.5 90.5
s-54.5 31.5 -94.5 31.5h-119v-243z" />
    <glyph glyph-name="afii10047" unicode="&#x42d;" horiz-adv-x="614" 
d="M257 -10c-92 0 -167.668 29.666 -227.001 88.999l55 85c52.667 -44.667 102.334 -67 149.001 -67c55.333 0 101.666 18 138.999 54s60.333 86 69 150h-259v102h258c-9.33301 62.667 -33.166 111.5 -71.499 146.5s-84.833 52.5 -139.5 52.5
c-42 0 -88.667 -20.667 -140 -62l-49 88c32 26.667 63.5 46.834 94.5 60.501s68.833 20.5 113.5 20.5c92 0 167.5 -33.167 226.5 -99.5s88.5 -151.5 88.5 -255.5v-8c0 -106 -28.833 -191.833 -86.5 -257.5s-131.167 -98.5 -220.5 -98.5z" />
    <glyph glyph-name="afii10048" unicode="&#x42e;" horiz-adv-x="918" 
d="M577 -11c-78.667 0 -144 28.166 -196 84.499s-82.333 131.5 -91 225.5h-97v-299h-116v700h116v-296h98c9.33301 92 40 166.167 92 222.5s117 84.5 195 84.5c86 0 155.833 -33.167 209.5 -99.5s80.5 -152.166 80.5 -257.499v-9c0 -105.333 -27 -191 -81 -257
s-124 -99 -210 -99zM578 92.999c51.333 0 92.666 22.832 123.999 68.499s47 106.834 47 183.501v9c0 76 -15.833 136.833 -47.5 182.5s-73.167 68.5 -124.5 68.5s-92.5 -22.5 -123.5 -67.5s-46.5 -106.167 -46.5 -183.5v-9c0 -76 15.833 -137 47.5 -183
s72.834 -69 123.501 -69z" />
    <glyph glyph-name="afii10049" unicode="&#x42f;" horiz-adv-x="624" 
d="M547 700v-700.001h-115v245c-54.667 0 -94.667 0.333008 -120 1l-145 -246h-138l165 270c-44.667 15.333 -80 40.333 -106 75s-39 78.334 -39 131.001c0 149.333 88.333 224 265 224h233zM300 346.999l132 0.000976562v247h-105c-63.333 0 -106 -9.33301 -128 -28
s-33 -50.667 -33 -96c0 -38.667 12.167 -68.834 36.5 -90.501s56.833 -32.5 97.5 -32.5z" />
    <glyph glyph-name="afii10065" unicode="&#x430;" horiz-adv-x="516" 
d="M198 -10c-46 0 -84.833 14.499 -116.5 43.499s-47.5 68.167 -47.5 117.5v6c0 55.333 17.167 97.5 51.5 126.5s80.5 43.5 138.5 43.5c43.333 0 84 -7 122 -21v21c0 72.667 -38.667 109 -116 109c-40.667 0 -85 -10 -133 -30l-22 93c53.333 24.667 110.666 37 171.999 37
c68.667 0 120.834 -17.667 156.501 -53s53.5 -86.666 53.5 -153.999v-329h-111v65c-36.667 -50 -86 -75 -148 -75zM232 74.999c33.333 0 60.833 9.49902 82.5 28.499s32.5 43.5 32.5 73.5v54c-28.667 12.667 -61.667 19 -99 19c-32.667 0 -58 -7.66699 -76 -23
s-27 -36.666 -27 -63.999v-6c0 -26 8 -46.167 24 -60.5s37 -21.5 63 -21.5z" />
    <glyph glyph-name="afii10066" unicode="&#x431;" horiz-adv-x="571" 
d="M289 -11c-74 0 -132.333 25.6689 -175 77.002s-64 123 -64 215v13c0 39.333 0.833008 73 2.5 101s6 58.167 13 90.5s16.833 59.333 29.5 81s30.167 41.167 52.5 58.5s49.5 29.666 81.5 36.999l255 58l20 -93l-247 -59c-42 -10 -72 -27 -90 -51s-28 -54.667 -30 -92
c13.333 24.667 34.666 46 63.999 64s65.333 27 108 27c60.667 0 112.5 -24.333 155.5 -73s64.5 -110.334 64.5 -185.001v-3c0 -78 -21.667 -141.833 -65 -191.5s-101.666 -74.5 -174.999 -74.5zM290 87.002c38 0 68.5 15.5 91.5 46.5s34.5 70.833 34.5 119.5v4
c0 48.667 -12 88.667 -36 120s-54.333 47 -91 47s-66.667 -15.5 -90 -46.5s-35 -71.167 -35 -120.5v-4c0 -48 12 -87.667 36 -119s54 -47 90 -47z" />
    <glyph glyph-name="afii10067" unicode="&#x432;" horiz-adv-x="521" 
d="M65 530h222c51.333 0 92.5 -12 123.5 -36s46.5 -57.667 46.5 -101c0 -55.333 -26 -95 -78 -119c67.333 -23.333 101 -65.333 101 -126c0 -47.333 -17 -83.833 -51 -109.5s-80 -38.5 -138 -38.5h-226v530zM178 90h96c28.667 0 51 6 67 18s24 29.333 24 52
c0 22 -8.16699 39.167 -24.5 51.5s-39.833 18.5 -70.5 18.5h-92v-140zM178 310h85c26 0 46.5 5.66699 61.5 17s22.5 28 22.5 50c0 20.667 -7 36.5 -21 47.5s-33.667 16.5 -59 16.5h-89v-131z" />
    <glyph glyph-name="afii10068" unicode="&#x433;" horiz-adv-x="411" 
d="M65 0v530h328v-97h-215v-433h-113z" />
    <glyph glyph-name="afii10069" unicode="&#x434;" horiz-adv-x="565" 
d="M367 433h-145c0 -154 -15.667 -266 -47 -336h192v336zM435 0h-319l-8 -116h-97v213h50c36 79.333 54 200 54 362v71h364v-433h65l-12 -213h-97v116z" />
    <glyph glyph-name="afii10070" unicode="&#x435;" horiz-adv-x="529" 
d="M284 -11c-70 0 -128.166 24.668 -174.499 74.001s-69.5 114.666 -69.5 195.999v8c0 79.333 21.5 144.5 64.5 195.5s97.5 76.5 163.5 76.5c70 0 124.333 -25.833 163 -77.5s58 -118.5 58 -200.5c0 -18 -0.333008 -31.333 -1 -40h-334
c5.33301 -44 20.166 -77.667 44.499 -101s54.166 -35 89.499 -35c46.667 0 89.334 18.333 128.001 55l53 -71c-50 -53.333 -111.667 -80 -185 -80zM153.001 300.001h225c-2.66699 43.333 -13.667 78.333 -33 105s-45 40 -77 40c-31.333 0 -57.333 -12.833 -78 -38.5
s-33 -61.167 -37 -106.5z" />
    <glyph glyph-name="afii10072" unicode="&#x436;" horiz-adv-x="766" 
d="M439 0h-112v146l-62 86l-132 -232h-124l177 302l-171 228h129l183 -255v255h112v-255l183 255h129l-171 -228l177 -302h-125l-132 232l-61 -86v-146z" />
    <glyph glyph-name="afii10073" unicode="&#x437;" horiz-adv-x="448" 
d="M214 -11c-77.333 0 -141.333 20.668 -192 62.001l41 89c44.667 -33.333 87.667 -50 129 -50c29.333 0 53.833 5.66699 73.5 17s29.5 28.333 29.5 51c0 26.667 -9.33301 45 -28 55s-51.667 15 -99 15h-25v83h25c40.667 0 70 5.33301 88 16s27 30 27 58
c0 38.667 -27.667 58 -83 58c-48 0 -89.667 -14.333 -125 -43l-38 79c48.667 40 109.334 60 182.001 60c52 0 94.667 -12.833 128 -38.5s50 -59.167 50 -100.5c0 -56.667 -27.667 -97.334 -83 -122.001c61.333 -21.333 92 -64.333 92 -129c0 -46.667 -17.833 -85 -53.5 -115
s-81.834 -45 -138.501 -45z" />
    <glyph glyph-name="afii10074" unicode="&#x438;" horiz-adv-x="560" 
d="M495 530v-530h-110v348l-212 -348h-108v530h111v-346l210 346h109z" />
    <glyph glyph-name="afii10075" unicode="&#x439;" horiz-adv-x="560" 
d="M495 530v-530h-110v348l-212 -348h-108v530h111v-346l210 346h109zM284 588c-38 0 -69.834 11.667 -95.501 35s-41.167 55.666 -46.5 96.999l68 12c11.333 -44.667 36 -67 74 -67c39.333 0 64 22.333 74 67l68 -12c-5.33301 -41.333 -20.666 -73.666 -45.999 -96.999
s-57.333 -35 -96 -35z" />
    <glyph glyph-name="afii10076" unicode="&#x43a;" horiz-adv-x="522" 
d="M178 136v-136h-113v530h113v-248l191 248h130l-175 -223l188 -307h-131l-133 220z" />
    <glyph glyph-name="afii10077" unicode="&#x43b;" horiz-adv-x="550" 
d="M37 92c12 0 22.0039 2.3291 30.0039 6.99609s16.167 15.334 24.5 32.001s14.833 40.334 19.5 71.001s8.5 73.334 11.5 128.001s4.5 121.334 4.5 200.001h357v-530h-113v433h-138c0 -94 -3.33301 -170.5 -10 -229.5s-17.834 -103.5 -33.501 -133.5
s-32.834 -50 -51.501 -60s-43.334 -15 -74.001 -15c-12.667 0 -34 2 -64 6l6 95c9.33301 -2.66699 19.666 -4 30.999 -4z" />
    <glyph glyph-name="afii10078" unicode="&#x43c;" horiz-adv-x="636" 
d="M318 293l140 237h113v-530h-113v352l-141 -233h-1l-140 232v-351h-111v530h114z" />
    <glyph glyph-name="afii10079" unicode="&#x43d;" horiz-adv-x="553" 
d="M488 530v-530h-113v218h-197v-218h-113v530h113v-216h197v216h113z" />
    <glyph glyph-name="afii10080" unicode="&#x43e;" horiz-adv-x="573" 
d="M285 -11c-70 0 -128.167 25.5 -174.5 76.5s-69.5 115.5 -69.5 193.5v9c0 78 23.333 142.667 70 194s105.334 77 176.001 77c70 0 128.167 -25.5 174.5 -76.5s69.5 -115.5 69.5 -193.5v-9c0 -78 -23.333 -142.667 -70 -194s-105.334 -77 -176.001 -77zM287 88
c39.333 0 71 16 95 48s36 72.667 36 122v10c0 50 -12.5 91.167 -37.5 123.5s-56.833 48.5 -95.5 48.5c-39.333 0 -71 -15.833 -95 -47.5s-36 -72.5 -36 -122.5v-10c0 -49.333 12.5 -90.333 37.5 -123s56.833 -49 95.5 -49z" />
    <glyph glyph-name="afii10081" unicode="&#x43f;" horiz-adv-x="548" 
d="M483 530v-530h-112v433h-193v-433h-113v530h418z" />
    <glyph glyph-name="afii10082" unicode="&#x440;" horiz-adv-x="584" 
d="M65 -151l-0.000976562 681h113v-85c40.667 63.333 92.334 95 155.001 95c58 0 107.167 -23.5 147.5 -70.5s60.5 -112.833 60.5 -197.5v-14c0 -84.667 -20.167 -150.5 -60.5 -197.5s-89.5 -70.5 -147.5 -70.5c-60 0 -111.667 30 -155 90v-231h-113zM302.999 90
c35.333 0 65 15.333 89 46s36 71.667 36 123v11c0 51.333 -12 92.5 -36 123.5s-53.667 46.5 -89 46.5s-65.166 -15.667 -89.499 -47s-36.5 -72.333 -36.5 -123v-11c0 -50.667 12.167 -91.5 36.5 -122.5s54.166 -46.5 89.499 -46.5z" />
    <glyph glyph-name="afii10083" unicode="&#x441;" horiz-adv-x="486" 
d="M281 -11c-69.333 0 -126.666 25.332 -171.999 75.999s-68 115.334 -68 194.001v9c0 78.667 23 143.5 69 194.5s103.667 76.5 173 76.5c66.667 0 122.667 -22.667 168 -68l-52 -86c-36.667 35.333 -74.667 53 -114 53c-37.333 0 -68.333 -15.5 -93 -46.5
s-37 -71.5 -37 -121.5v-10c0 -51.333 12.5 -92.333 37.5 -123s57.5 -46 97.5 -46c39.333 0 77.333 17.333 114 52l50 -79c-48.667 -50 -106.334 -75 -173.001 -75z" />
    <glyph glyph-name="afii10084" unicode="&#x442;" horiz-adv-x="435" 
d="M162 0v433h-146v97h403v-97h-145v-433h-112z" />
    <glyph glyph-name="afii10085" unicode="&#x443;" horiz-adv-x="526" 
d="M157 -154c-39.333 0 -76.333 9 -111 27l34 87c22 -12 43.667 -18 65 -18c29.333 0 52 19 68 57l-190 531h119l124 -393l119 393h117l-185 -541c-17.333 -51.333 -38.333 -88 -63 -110s-57 -33 -97 -33z" />
    <glyph glyph-name="afii10086" unicode="&#x444;" horiz-adv-x="784" 
d="M336 -151l-0.00195312 191.001c-27.333 -32 -63.666 -48 -108.999 -48c-54.667 0 -99.167 23.833 -133.5 71.5s-51.5 116.5 -51.5 206.5c0 85.333 17 151.166 51 197.499s79 69.5 135 69.5c42.667 0 78.667 -18 108 -54v217h112v-217c29.333 36 65.333 54 108 54
c56 0 101 -23.333 135 -70s51 -112.667 51 -198v-6c0 -87.333 -17.167 -154.333 -51.5 -201s-78.833 -70 -133.5 -70c-45.333 0 -81.666 16 -108.999 48v-191h-112zM521.998 89.001c34 0 60.167 15 78.5 45s27.5 73 27.5 129c0 54 -9.33301 96.667 -28 128
s-44.667 47 -78 47c-28 0 -52.667 -15 -74 -45v-266c21.333 -25.333 46 -38 74 -38zM262.998 89.001c27.333 0 51.667 12.666 73 37.999v266c-20 30 -44.333 45 -73 45c-33.333 0 -59.5 -15.667 -78.5 -47s-28.5 -74 -28.5 -128c0 -55.333 9.16699 -98.166 27.5 -128.499
s44.833 -45.5 79.5 -45.5z" />
    <glyph glyph-name="afii10087" unicode="&#x445;" horiz-adv-x="512" 
d="M26 0l166 270l-160 260h122l103 -175l104 175h118l-160 -258l167 -272h-122l-110 186l-109 -186h-119z" />
    <glyph glyph-name="afii10088" unicode="&#x446;" horiz-adv-x="566" 
d="M437 -116v116h-372v530h113v-433h193v433h112v-433h63l-11 -213h-98z" />
    <glyph glyph-name="afii10089" unicode="&#x447;" horiz-adv-x="524" 
d="M345 0l0.000976562 201c-40.667 -24 -86.334 -36 -137.001 -36c-47.333 0 -85.333 13.667 -114 41s-43 67 -43 119v205h113v-176c0 -28.667 6.83301 -51.167 20.5 -67.5s32.167 -24.5 55.5 -24.5c38 0 73 10.333 105 31v237h112v-530h-112z" />
    <glyph glyph-name="afii10090" unicode="&#x448;" horiz-adv-x="800" 
d="M735 530v-530h-670v530h113v-433h166v433h112v-433h167v433h112z" />
    <glyph glyph-name="afii10091" unicode="&#x449;" horiz-adv-x="819" 
d="M691 -116v116h-626v530h113v-433h166v433h112v-433h167v433h112v-433h64l-10 -213h-98z" />
    <glyph glyph-name="afii10092" unicode="&#x44a;" horiz-adv-x="561" 
d="M336 0h-205v433h-121v97h235v-187h89c60.667 0 109 -14 145 -42s54 -69.667 54 -125c0 -58 -17.667 -101.833 -53 -131.5s-83.333 -44.5 -144 -44.5zM245 91l87.001 -0.000976562c26.667 0 48 7.33301 64 22s24 34.334 24 59.001c0 26.667 -7.83301 47 -23.5 61
s-36.834 21 -63.501 21h-88v-163z" />
    <glyph glyph-name="afii10093" unicode="&#x44b;" horiz-adv-x="704" 
d="M527 0v530h112v-530h-112zM65 0v530h113v-187h89c60.667 0 109 -14 145 -42s54 -69.667 54 -125c0 -58 -17.667 -101.833 -53 -131.5s-83.333 -44.5 -144 -44.5h-204zM178 91l87.001 -0.000976562c26.667 0 48 7.33301 64 22s24 34.334 24 59.001
c0 26.667 -7.83301 47 -23.5 61s-36.834 21 -63.501 21h-88v-163z" />
    <glyph glyph-name="afii10094" unicode="&#x44c;" horiz-adv-x="492" 
d="M65 0v530h113v-187h89c60.667 0 109 -14 145 -42s54 -69.667 54 -125c0 -58 -17.667 -101.833 -53 -131.5s-83.333 -44.5 -144 -44.5h-204zM178 91l87.001 -0.000976562c26.667 0 48 7.33301 64 22s24 34.334 24 59.001c0 26.667 -7.83301 47 -23.5 61
s-36.834 21 -63.501 21h-88v-163z" />
    <glyph glyph-name="afii10095" unicode="&#x44d;" horiz-adv-x="481" 
d="M200 -11c-69.333 0 -127.999 24.667 -175.999 74l51 77c35.333 -34 69.666 -51 102.999 -51c38 0 70.333 11.833 97 35.5s43.334 56.167 50.001 97.5h-175v86h175c-6 37.333 -20.167 68 -42.5 92s-49.166 37 -80.499 39c-50 0 -91.667 -16.333 -125 -49l-45 80
c46 44.667 100 67 162 67c71.333 0 130.166 -25.167 176.499 -75.5s69.5 -115.166 69.5 -194.499v-8c0 -78.667 -22.833 -143.334 -68.5 -194.001s-102.834 -76 -171.501 -76z" />
    <glyph glyph-name="afii10096" unicode="&#x44e;" horiz-adv-x="760" 
d="M486 -11c-62 0 -113.668 20.834 -155.001 62.501s-66 96.5 -74 164.5h-79v-216h-113v530h113v-217h79c8.66699 67.333 33.834 121.666 75.501 162.999s93.167 62 154.5 62c68.667 0 124.5 -25.333 167.5 -76s64.5 -115.667 64.5 -195v-7
c0 -78.667 -21.667 -143.5 -65 -194.5s-99.333 -76.5 -168 -76.5zM486.999 87.001c36 0 65 16.333 87 49s33 75 33 127s-11.333 94.333 -34 127s-51.667 49 -87 49c-36.667 0 -65.667 -16 -87 -48s-32 -74.667 -32 -128c0 -52.667 11 -95.167 33 -127.5s51 -48.5 87 -48.5z
" />
    <glyph glyph-name="afii10097" unicode="&#x44f;" horiz-adv-x="523" 
d="M458 530v-530h-112v181h-86l-103 -181h-135l127 203c-32.667 12 -58.667 31.167 -78 57.5s-29 58.5 -29 96.5c0 55.333 16 98 48 128s80.667 45 146 45h222zM246 268h100v170h-82c-41.333 0 -70 -6.5 -86 -19.5s-24 -34.833 -24 -65.5c0 -26.667 8.33301 -47.5 25 -62.5
s39 -22.5 67 -22.5z" />
    <glyph glyph-name="afii10071" unicode="&#x451;" horiz-adv-x="529" 
d="M284 -11c-70 0 -128.166 24.668 -174.499 74.001s-69.5 114.666 -69.5 195.999v8c0 79.333 21.5 144.5 64.5 195.5s97.5 76.5 163.5 76.5c70 0 124.333 -25.833 163 -77.5s58 -118.5 58 -200.5c0 -18 -0.333008 -31.333 -1 -40h-334
c5.33301 -44 20.166 -77.667 44.499 -101s54.166 -35 89.499 -35c46.667 0 89.334 18.333 128.001 55l53 -71c-50 -53.333 -111.667 -80 -185 -80zM153.001 300.001h225c-2.66699 43.333 -13.667 78.333 -33 105s-45 40 -77 40c-31.333 0 -57.333 -12.833 -78 -38.5
s-33 -61.167 -37 -106.5zM412.001 598.001h-112v111h112v-111zM228.001 598.001h-112v111h112v-111z" />
    <glyph glyph-name="afii10099" unicode="&#x452;" horiz-adv-x="548" 
d="M315 -6c-29.333 0 -57.9971 4.66797 -85.9971 14.001l15 89c11.333 -4 22.666 -6 33.999 -6c29.333 0 52.666 9.66699 69.999 29s26 46 26 80v103c0 36.667 -8.16699 65 -24.5 85s-39.5 30 -69.5 30c-30.667 0 -55.334 -10.667 -74.001 -32s-28 -50 -28 -86v-300h-113
v564h-61v86h61v72h113v-72h162v-86h-162v-132c38.667 58.667 87 88 145 88c52 0 92.5 -16.833 121.5 -50.5s43.5 -78.834 43.5 -135.501v-161c0 -55.333 -15.5 -99 -46.5 -131s-73.167 -48 -126.5 -48z" />
    <glyph glyph-name="afii10100" unicode="&#x453;" horiz-adv-x="411" 
d="M65 0v530h328v-97h-215v-433h-113zM346 710l-117 -117h-83l100 163z" />
    <glyph glyph-name="afii10101" unicode="&#x454;" horiz-adv-x="481" 
d="M281 -11c-68.667 0 -125.833 25.333 -171.5 76s-68.5 115.334 -68.5 194.001v8c0 79.333 23.167 144.166 69.5 194.499s105.166 75.5 176.499 75.5c62 0 116 -22.333 162 -67l-45 -80c-33.333 32.667 -75 49 -125 49c-31.333 -2 -58.166 -15 -80.499 -39
s-36.5 -54.667 -42.5 -92h175v-86h-175c6.66699 -41.333 23.334 -73.833 50.001 -97.5s59 -35.5 97 -35.5c33.333 0 67.666 17 102.999 51l51 -77c-48 -49.333 -106.667 -74 -176 -74z" />
    <glyph glyph-name="afii10102" unicode="&#x455;" horiz-adv-x="436" 
d="M218 -10c-68 0 -130.666 20.9951 -187.999 62.9951l38 86c52.667 -37.333 103 -56 151 -56c22.667 0 40.667 5.16699 54 15.5s20 24.5 20 42.5c0 4 -0.5 7.83301 -1.5 11.5s-2.66699 7.16699 -5 10.5l-6.5 9c-2 2.66699 -5.5 5.66699 -10.5 9l-12 8
c-3 2 -7.83301 4.66699 -14.5 8s-11.834 6 -15.501 8s-9.83398 5 -18.501 9s-15 7 -19 9c-22.667 10.667 -40.834 19.834 -54.501 27.501s-28.167 18 -43.5 31s-26.666 28 -33.999 45s-11 36.167 -11 57.5c0 47.333 16.333 84.833 49 112.5s74.334 41.5 125.001 41.5
c58 0 112 -15.667 162 -47l-34 -88c-47.333 28 -90.333 42 -129 42c-20.667 0 -37 -4.83301 -49 -14.5s-18 -22.5 -18 -38.5c0 -4 0.5 -7.66699 1.5 -11s2.66699 -6.66602 5 -9.99902s4.5 -6.16602 6.5 -8.49902s5.33301 -5.16602 10 -8.49902l11.5 -8
c3 -2 8 -4.83301 15 -8.5l16 -8.5c3.66699 -2 9.83398 -5.16699 18.501 -9.5l19 -9.5c24 -12 42.5 -22 55.5 -30s27.167 -18.5 42.5 -31.5s26.5 -27.667 33.5 -44s10.5 -35.166 10.5 -56.499c0 -49.333 -16.833 -88 -50.5 -116s-76.834 -42 -129.501 -42z" />
    <glyph glyph-name="afii10103" unicode="&#x456;" horiz-adv-x="255" 
d="M70 0v530h114v-530h-114zM68 607v111h120v-111h-120z" />
    <glyph glyph-name="afii10104" unicode="&#x457;" horiz-adv-x="255" 
d="M276 598h-112v111h112v-111zM92 598h-112v111h112v-111zM184 0h-114v530h114v-530z" />
    <glyph glyph-name="afii10105" unicode="&#x458;" horiz-adv-x="257" 
d="M42 -154c-16 0 -33.333 1.66699 -52 5v91c9.33301 -2 18.333 -3 27 -3c36.667 0 55 21 55 63v528h113v-537c0 -98 -47.667 -147 -143 -147zM68 607v111h121v-111h-121z" />
    <glyph glyph-name="afii10106" unicode="&#x459;" horiz-adv-x="799" 
d="M372 0l0.00390625 432.996h-139c0 -94 -3.33301 -170.5 -10 -229.5s-17.834 -103.5 -33.501 -133.5s-32.834 -50 -51.501 -60s-43.334 -15 -74.001 -15c-12.667 0 -34 2 -64 6l6 95c9.33301 -2.66699 19.666 -4 30.999 -4c12 0 22 2.33301 30 7
s16.167 15.334 24.5 32.001s14.833 40.334 19.5 71.001s8.5 73.334 11.5 128.001s4.5 121.334 4.5 200.001h358v-187h89c60.667 0 109 -14 145 -42s54 -69.667 54 -125c0 -58 -17.667 -101.833 -53 -131.5s-83.333 -44.5 -144 -44.5h-204zM485.004 90.9961
l87.001 -0.000976562c26.667 0 48 7.33301 64 22s24 34.334 24 59.001c0 26.667 -7.83301 47 -23.5 61s-36.834 21 -63.501 21h-88v-163z" />
    <glyph glyph-name="afii10107" unicode="&#x45a;" horiz-adv-x="802" 
d="M375 0v236.999h-197v-237h-113v530h113v-197h197v197h113v-197h89c61.333 0 109.833 -13.167 145.5 -39.5s53.5 -67.166 53.5 -122.499c0 -58 -17.5 -101 -52.5 -129s-83.167 -42 -144.5 -42h-204zM488 90.999h87c27.333 0 48.833 6.66699 64.5 20s23.5 32 23.5 56
c0 51.333 -29 77 -87 77h-88v-153z" />
    <glyph glyph-name="afii10108" unicode="&#x45b;" horiz-adv-x="548" 
d="M4 650l61.001 0.000976562v72h113v-72h162v-86h-162v-132c38.667 58.667 87 88 145 88c52 0 92.5 -16.833 121.5 -50.5s43.5 -78.834 43.5 -135.501v-334h-114v303c0 36.667 -8.16699 65 -24.5 85s-39.5 30 -69.5 30c-30.667 0 -55.334 -10.667 -74.001 -32
s-28 -50 -28 -86v-300h-113v564h-61v86z" />
    <glyph glyph-name="afii10109" unicode="&#x45c;" horiz-adv-x="522" 
d="M178 136v-136h-113v530h113v-248l191 248h130l-175 -223l188 -307h-131l-133 220zM401 710l-117 -117h-83l100 163z" />
    <glyph glyph-name="afii10110" unicode="&#x45e;" horiz-adv-x="526" 
d="M157 -154c-39.333 0 -76.333 9 -111 27l34 87c22 -12 43.667 -18 65 -18c29.333 0 52 19 68 57l-190 531h119l124 -393l119 393h117l-185 -541c-17.333 -51.333 -38.333 -88 -63 -110s-57 -33 -97 -33zM266 588c-38 0 -69.834 11.667 -95.501 35
s-41.167 55.666 -46.5 96.999l68 12c11.333 -44.667 36 -67 74 -67c39.333 0 64 22.333 74 67l68 -12c-5.33301 -41.333 -20.666 -73.666 -45.999 -96.999s-57.333 -35 -96 -35z" />
    <glyph glyph-name="afii10193" unicode="&#x45f;" horiz-adv-x="550" 
d="M485 530v-530h-155v-116h-107v116h-158v530h114v-433h193v433h113z" />
    <glyph glyph-name="afii10050" unicode="&#x490;" horiz-adv-x="491" 
d="M479 594h-287v-594h-115v700h291v136h96z" />
    <glyph glyph-name="afii10098" unicode="&#x491;" horiz-adv-x="411" 
d="M393 433h-215v-433h-113v530h219v116h98z" />
    <glyph glyph-name="endash" unicode="&#x2013;" horiz-adv-x="502" 
d="M450 252h-399v108h399v-108z" />
    <glyph glyph-name="emdash" unicode="&#x2014;" horiz-adv-x="823" 
d="M771 252h-720v108h720v-108z" />
    <glyph glyph-name="quoteleft" unicode="&#x2018;" horiz-adv-x="250" 
d="M215 656c-60 -12.667 -87.333 -45 -82 -97h51v-133h-127v112c0 52 12 91.333 36 118s60.667 42.667 110 48z" />
    <glyph glyph-name="quoteright" unicode="&#x2019;" horiz-adv-x="250" 
d="M194 589c0 -52.667 -12.168 -92.168 -36.501 -118.501s-61.166 -42.166 -110.499 -47.499l-12 48c60 12.667 87.333 45 82 97h-51v132h128v-111z" />
    <glyph glyph-name="quotesinglbase" unicode="&#x201a;" horiz-adv-x="256" 
d="M193 21c0 -52 -12.167 -91.333 -36.5 -118s-61.833 -42.667 -112.5 -48l-11 49c60 12.667 88 44.667 84 96h-52v132h128v-111z" />
    <glyph glyph-name="quotedblleft" unicode="&#x201c;" horiz-adv-x="464" 
d="M429 656c-60 -12.667 -87.332 -45 -81.999 -97h51v-133h-128v112c0 52 12.167 91.333 36.5 118s61.166 42.667 110.499 48zM215.001 656c-60 -12.667 -87.333 -45 -82 -97h51v-133h-127v112c0 52 12 91.333 36 118s60.667 42.667 110 48z" />
    <glyph glyph-name="quotedblright" unicode="&#x201d;" horiz-adv-x="464" 
d="M408 589c0 -52.667 -12.168 -92.168 -36.501 -118.501s-61.166 -42.166 -110.499 -47.499l-12 48c60 12.667 87.333 45 82 97h-51v132h128v-111zM193.999 588.999c0 -52.667 -12.168 -92.168 -36.501 -118.501s-61.166 -42.166 -110.499 -47.499l-12 48
c60 12.667 87.333 45 82 97h-51v132h128v-111z" />
    <glyph glyph-name="quotedblbase" unicode="&#x201e;" horiz-adv-x="472" 
d="M409 21c0 -52 -12.167 -91.333 -36.5 -118s-61.833 -42.667 -112.5 -48l-12 49c60.667 12.667 89 44.667 85 96h-52v132h128v-111zM193 21c0 -52 -12.167 -91.333 -36.5 -118s-61.833 -42.667 -112.5 -48l-11 49c60 12.667 88 44.667 84 96h-52v132h128v-111z" />
    <glyph glyph-name="dagger" unicode="&#x2020;" horiz-adv-x="359" 
d="M205 513l10 -275h-71l9 275l-108 -9v71l107 -11l-12 136h78l-12 -136l107 11v-71z" />
    <glyph glyph-name="daggerdbl" unicode="&#x2021;" horiz-adv-x="379" 
d="M323 125l-107 9l12 -134h-78l12 134l-107 -9v71l107 -11l-9 165l9 163l-107 -9v71l107 -11l-12 136h79l-13 -136l107 11v-71l-108 9l10 -163l-10 -165l108 11v-71z" />
    <glyph glyph-name="bullet" unicode="&#x2022;" horiz-adv-x="447" 
d="M223 212c-36.667 0 -67.334 13 -92.001 39s-37 59 -37 99v5c0 40 12.333 73 37 99s55.334 39 92.001 39s67.5 -13 92.5 -39s37.5 -59 37.5 -99v-5c0 -40 -12.5 -73 -37.5 -99s-55.833 -39 -92.5 -39z" />
    <glyph glyph-name="ellipsis" unicode="&#x2026;" horiz-adv-x="752" 
d="M689 0h-125v131h125v-131zM439 0h-126v131h126v-131zM188 0h-125v131h125v-131z" />
    <glyph glyph-name="perthousand" unicode="&#x2030;" horiz-adv-x="1101" 
d="M339 531l-0.00195312 -5.00098c0 -50.667 -14.167 -93 -42.5 -127s-64.166 -51 -107.499 -51s-78.666 16.667 -105.999 50s-41 75.333 -41 126v6c0 50.667 14 92.834 42 126.501s63.667 50.5 107 50.5s78.833 -16.667 106.5 -50s41.5 -75.333 41.5 -126zM562.998 699.999
h88l-454 -700h-88zM1059 175.999v-6c0 -50.667 -14 -92.834 -42 -126.501s-64 -50.5 -108 -50.5c-43.333 0 -78.5 16.667 -105.5 50s-40.5 75.333 -40.5 126v5c0 50.667 13.833 92.834 41.5 126.501s63.167 50.5 106.5 50.5s78.833 -16.5 106.5 -49.5
s41.5 -74.833 41.5 -125.5zM717.998 175.999l-0.000976562 -6c0 -50.667 -14 -92.834 -42 -126.501s-64 -50.5 -108 -50.5c-43.333 0 -78.666 16.667 -105.999 50s-41 75.333 -41 126v5c0 50.667 14 92.834 42 126.501s63.667 50.5 107 50.5s78.833 -16.5 106.5 -49.5
s41.5 -74.833 41.5 -125.5zM254.997 523.999l-0.000976562 5.99902c0 30.667 -6.16699 55.5 -18.5 74.5s-28.166 28.5 -47.499 28.5c-20 0 -35.833 -9.5 -47.5 -28.5s-17.5 -43.5 -17.5 -73.5v-5c0 -31.333 6.33301 -56.5 19 -75.5s28.667 -28.5 48 -28.5
c20 0 35.667 9.33301 47 28s17 43.334 17 74.001zM975.996 168.998l0.000976562 5.00098c0 30.667 -6.33301 55.5 -19 74.5s-28.667 28.5 -48 28.5s-34.833 -9.33301 -46.5 -28s-17.5 -43.334 -17.5 -74.001v-5c0 -30.667 6.16699 -55.667 18.5 -75s28.166 -29 47.499 -29
c20 0 35.833 9.5 47.5 28.5s17.5 43.833 17.5 74.5zM633.997 168.999l-0.000976562 5.00098c0 30.667 -6.16699 55.5 -18.5 74.5s-28.166 28.5 -47.499 28.5s-35 -9.33301 -47 -28s-18 -43.334 -18 -74.001v-5c0 -30.667 6.33301 -55.667 19 -75s28.667 -29 48 -29
s34.833 9.5 46.5 28.5s17.5 43.833 17.5 74.5z" />
    <glyph glyph-name="guilsinglleft" unicode="&#x2039;" horiz-adv-x="326" 
d="M281 87l-88 -46l-153 219v8l153 220l88 -45l-125 -178z" />
    <glyph glyph-name="guilsinglright" unicode="&#x203a;" horiz-adv-x="326" 
d="M287 260l-155 -219l-88 45l127 178l-126 177l87 47l155 -220v-8z" />
    <glyph glyph-name="fraction" unicode="&#x2044;" horiz-adv-x="435" 
d="M367 754h103l-421 -843h-103z" />
    <glyph glyph-name="Euro" unicode="&#x20ac;" horiz-adv-x="616" 
d="M577 93c-54.667 -69.333 -119.665 -104 -194.998 -104c-65.333 0 -120.666 21.167 -165.999 63.5s-76.333 100.833 -93 175.5h-82v81h71c-0.666992 8 -1 20.333 -1 37v7c0 19.333 0.333008 33.666 1 42.999h-71v81h84c17.333 72.667 48.666 129.834 93.999 171.501
s99.666 62.5 162.999 62.5c78 0 142.333 -32.333 193 -97l-65 -79c-19.333 24.667 -38.833 42.667 -58.5 54s-42.834 17 -69.501 17c-32 0 -59.833 -11.167 -83.5 -33.5s-41.5 -54.166 -53.5 -95.499h185v-81h-200c-1.33301 -8.66699 -2 -22.667 -2 -42v-7
c0 -16.667 0.333008 -29.334 1 -38.001h201v-81h-187c24.667 -89.333 73 -134 145 -134c44 0 86.333 24.667 127 74z" />
    <glyph glyph-name="afii61352" unicode="&#x2116;" horiz-adv-x="949" 
d="M77 0v700h110l265 -464v464h117v-700h-102l-274 476v-476h-116zM768 226c-39.333 0 -71.6641 14.5 -96.9971 43.5s-38 66.167 -38 111.5v5c0 44.667 12.667 81.667 38 111s57.666 44 96.999 44s71.666 -14.5 96.999 -43.5s38 -65.833 38 -110.5v-6
c0 -44.667 -12.833 -81.667 -38.5 -111s-57.834 -44 -96.501 -44zM768.002 294c18 0 32.667 7.83301 44 23.5s17 37.5 17 65.5s-5.83301 50 -17.5 66s-26.167 24 -43.5 24c-18 0 -32.833 -8 -44.5 -24s-17.5 -38 -17.5 -66c0 -26.667 6 -48.167 18 -64.5
s26.667 -24.5 44 -24.5zM644.002 98v75h247v-75h-247z" />
    <glyph glyph-name="published" unicode="&#x2117;" horiz-adv-x="738" 
d="M693 355v-10c0 -100 -31.167 -184.333 -93.5 -253s-139.5 -103 -231.5 -103c-91.333 0 -168 34.167 -230 102.5s-93 152.5 -93 252.5v10c0 100 31.167 184.5 93.5 253.5s139.5 103.5 231.5 103.5c91.333 0 168 -34.333 230 -103s93 -153 93 -253zM656 345
l-0.00195312 9.99805c0 90.667 -27 166.834 -81 228.501s-122.333 92.5 -205 92.5c-83.333 0 -152.166 -31 -206.499 -93s-81.5 -138.333 -81.5 -229v-11c0 -90.667 27 -166.5 81 -227.5s122.333 -91.5 205 -91.5s151.334 30.833 206.001 92.5s82 137.834 82 228.501z
M519.998 418.998v-0.999023c0 -41.333 -13.5 -73.333 -40.5 -96s-61.167 -34.334 -102.5 -35.001h-52v-121h-68v381h124c42.667 0 76.5 -11.333 101.5 -34s37.5 -54 37.5 -94zM450.998 416.999c0 22 -6.33301 38.833 -19 50.5s-30 17.5 -52 17.5h-55v-136h55
c21.333 0 38.5 6.16699 51.5 18.5s19.5 28.833 19.5 49.5z" />
    <glyph glyph-name="trademark" unicode="&#x2122;" horiz-adv-x="609" 
d="M514 606l-80 -144h-4l-80 144v-217h-56v311h62l77 -138l76 138h61v-311h-56v217zM159 647v-258h-58v258h-79v53h215v-53h-78z" />
    <glyph glyph-name="partialdiff" unicode="&#x2202;" 
d="M0 0v700h500v-700h-500zM81 49h339l-170 255zM49 96l171 254l-171 254v-508zM450 96v508l-171 -254zM250 395l170 255h-339z" />
    <glyph glyph-name="Delta" unicode="&#x2206;" horiz-adv-x="583" 
d="M22 0l251 701h112l251 -701h-614zM180 104h297l-148 435z" />
    <glyph glyph-name="product" unicode="&#x220f;" 
d="M0 0v700h500v-700h-500zM81 49h339l-170 255zM49 96l171 254l-171 254v-508zM450 96v508l-171 -254zM250 395l170 255h-339z" />
    <glyph glyph-name="summation" unicode="&#x2211;" 
d="M0 0v700h500v-700h-500zM81 49h339l-170 255zM49 96l171 254l-171 254v-508zM450 96v508l-171 -254zM250 395l170 255h-339z" />
    <glyph glyph-name="minus" unicode="&#x2212;" 
d="M0 0v700h500v-700h-500zM81 49h339l-170 255zM49 96l171 254l-171 254v-508zM450 96v508l-171 -254zM250 395l170 255h-339z" />
    <glyph glyph-name="radical" unicode="&#x221a;" horiz-adv-x="533" 
d="M82 208l-88 -7l-5 82l147 11l105 -235l240 735h91l-315 -941h-18z" />
    <glyph glyph-name="infinity" unicode="&#x221e;" 
d="M0 0v700h500v-700h-500zM81 49h339l-170 255zM49 96l171 254l-171 254v-508zM450 96v508l-171 -254zM250 395l170 255h-339z" />
    <glyph glyph-name="integral" unicode="&#x222b;" 
d="M0 0v700h500v-700h-500zM81 49h339l-170 255zM49 96l171 254l-171 254v-508zM450 96v508l-171 -254zM250 395l170 255h-339z" />
    <glyph glyph-name="approxequal" unicode="&#x2248;" horiz-adv-x="590" 
d="M121 385l-64.001 15c20 94 64 141 132 141c21.333 0 57.5 -8.16699 108.5 -24.5s83.5 -24.5 97.5 -24.5c36 0 60.333 18.333 73 55l32 -7c21.333 -4.66699 32.333 -7 33 -7c-19.333 -94 -63.333 -141 -132 -141c-22 0 -58.667 8.16699 -110 24.5
s-83.666 24.5 -96.999 24.5c-34.667 0 -59 -18.667 -73 -56zM120.999 156l-64.001 15c20 93.333 64 140 132 140c22 0 58.333 -8 109 -24s83 -24 97 -24c36.667 0 61 18.333 73 55l32 -8c21.333 -4.66699 32.333 -7 33 -7c-19.333 -93.333 -63.333 -140 -132 -140
c-22 0 -58.5 8 -109.5 24s-83.5 24 -97.5 24c-35.333 0 -59.666 -18.333 -72.999 -55z" />
    <glyph glyph-name="notequal" unicode="&#x2260;" horiz-adv-x="590" 
d="M417 646l80 -9l-63 -113h80v-106h-142l-76 -134h218v-106h-279l-68 -123c-50.667 6 -77 9 -79 9l63 114h-78v106h140l76 134h-216v106h276z" />
    <glyph glyph-name="lessequal" unicode="&#x2264;" horiz-adv-x="590" 
d="M68 20v101h454v-101h-454zM522 167l-454 172v110l454 172v-113l-335 -114l335 -113v-114z" />
    <glyph glyph-name="greaterequal" unicode="&#x2265;" horiz-adv-x="590" 
d="M521 339l-452 -172v113l334 114l-334 113v114l452 -172v-110zM522 121v-101h-454v101h454z" />
    <glyph glyph-name="lozenge" unicode="&#x25ca;" 
d="M0 0v700h500v-700h-500zM81 49h339l-170 255zM49 96l171 254l-171 254v-508zM450 96v508l-171 -254zM250 395l170 255h-339z" />
    <glyph glyph-name="cyrbreve" unicode="&#xf6d1;" 
d="M249 588c-38 0 -69.834 11.667 -95.501 35s-41.167 55.666 -46.5 96.999l68 12c11.333 -44.667 36 -67 74 -67c39.333 0 64 22.333 74 67l68 -12c-5.33301 -41.333 -20.666 -73.666 -45.999 -96.999s-57.333 -35 -96 -35z" />
    <glyph glyph-name="cyrBreve" unicode="&#xf6d4;" 
d="M249 589c-38.667 0 -71 11.833 -97 35.5s-42.333 56.167 -49 97.5l72 14c11.333 -44.667 36 -67 74 -67s62.667 22.333 74 67l72 -14c-6.66699 -42 -23 -74.667 -49 -98s-58.333 -35 -97 -35z" />
    <glyph glyph-name="apple" unicode="&#xf8ff;" 
d="M0 0v700h500v-700h-500zM81 49h339l-170 255zM49 96l171 254l-171 254v-508zM450 96v508l-171 -254zM250 395l170 255h-339z" />
    <glyph glyph-name="ff" unicode="&#xfb00;" horiz-adv-x="662" 
d="M531 526h118v-93h-117v-433h-112v433h-59v94h59v41c0 106 50 159 150 159c31.333 0 58 -3.66699 80 -11v-96c-18.667 6.66699 -37 10 -55 10c-42.667 0 -64 -24.333 -64 -73v-31zM201 526l117 -0.000976562v-93h-116v-433h-113v433h-59v94h59v41
c0 52.667 13 92.334 39 119.001s63 40 111 40c31.333 0 58 -3.66699 80 -11v-96c-18.667 6.66699 -36.667 10 -54 10c-42.667 0 -64 -24.333 -64 -73v-31z" />
    <glyph glyph-name=".null" horiz-adv-x="0" 
 />
    <glyph glyph-name="nonmarkingreturn" horiz-adv-x="333" 
 />
    </font>
</defs>
</svg>
