<svg width="90" height="90" fill="none" xmlns="http://www.w3.org/2000/svg"><path d="M76.82 13.18C68.32 4.68 57.02 0 45 0S21.68 4.68 13.18 13.18 0 32.98 0 45s4.68 23.32 13.18 31.82C21.68 85.319 32.98 90 45 90s23.32-4.68 31.82-13.18S90 57.02 90 45s-4.68-23.32-13.18-31.82zM45 81.167C25.057 81.167 8.833 64.943 8.833 45v-.122l.002-.04c.087-19.706 16.011-35.736 35.673-36 .042-.002.082-.006.124-.006.025 0 .05.003.074.004.098-.001.196-.004.294-.004 19.943 0 36.168 16.224 36.168 36.167S64.942 81.167 45 81.167z" fill="#C177CD"/><path d="M72.21 46.93a2.663 2.663 0 010-5.326h3.209C73.91 26.824 61.925 15.1 47.03 14v2.794a2.663 2.663 0 11-5.325 0v-2.73c-14.674 1.438-26.362 13.201-27.684 27.908h2.874a2.663 2.663 0 010 5.325H14C15.224 62.241 27.147 74.2 42.074 75.482v-3.375a2.663 2.663 0 015.326 0v3.375C62.449 74.19 74.444 62.044 75.5 46.93h-3.29zm-16.694-9.187L46.62 46.64a2.662 2.662 0 01-3.766 0L27.37 31.154a2.663 2.663 0 113.766-3.765L44.737 40.99l7.013-7.013a2.663 2.663 0 113.766 3.765z" fill="#C177CD"/></svg>