<svg width="75" height="83" fill="none" xmlns="http://www.w3.org/2000/svg"><path d="M74.658 69.707L63.168 51.25c1.988-.567 4.106-1.067 4.986-2.488 1.467-2.366-1.144-6.248-.458-8.785.706-2.61 4.875-4.87 4.875-7.523 0-2.585-4.31-5.605-5.017-8.2-.69-2.537 1.913-6.423.441-8.787-1.471-2.363-6.372-2.17-8.39-3.984-2.075-1.867-2.069-6.435-4.572-7.687-2.514-1.255-6.6 1.283-9.391.682C42.882 3.883 40.417 0 37.535 0c-2.925 0-7.577 4.405-8.307 4.563-2.79.606-6.88-1.926-9.392-.664-2.501 1.255-2.486 5.824-4.558 7.694-2.014 1.818-6.915 1.632-8.382 3.999-1.467 2.366 1.144 6.247.459 8.785-.688 2.544-5.001 5.122-5.001 8.065 0 2.653 4.179 4.905 4.89 7.514.69 2.537-1.913 6.422-.442 8.787.801 1.287 2.619 1.815 4.434 2.323.212.06.612.28.34.65A54578.043 54578.043 0 01.34 69.842c-.795 1.282-.149 2.381 1.435 2.444l7.752.302c1.584.062 3.571 1.138 4.417 2.391l4.136 6.136c.846 1.253 2.187 1.23 2.982-.053 0 0 11.575-18.677 11.58-18.683.232-.253.465-.201.577-.113 1.267 1.008 3.032 2.014 4.506 2.014 1.445 0 2.783-.947 4.106-2.002.108-.086.37-.262.562.103l11.565 18.581c.797 1.28 2.139 1.303 2.982.048l4.125-6.143c.843-1.254 2.828-2.334 4.411-2.399l7.752-.315c1.583-.065 2.227-1.166 1.43-2.446zm-24.31-16.801c-8.573 4.66-18.861 4.161-26.72-.472-11.515-6.894-15.304-21.155-8.382-32.322 7.002-11.296 22.392-15.281 34.587-9.074l.19.1c.091.046.181.094.271.142 3.762 2.027 7.025 4.97 9.36 8.722 7.14 11.47 2.965 26.23-9.307 32.904z" fill="#C177CD"/><path d="M48.387 14.655l-.107-.056c-6.515-3.524-14.817-3.781-21.776.002-10.326 5.615-13.84 18.035-7.832 27.686 1.833 2.945 4.345 5.296 7.243 6.983.247.146.496.29.75.427 10.338 5.598 23.619 2.291 29.608-7.37 5.988-9.661 2.451-22.074-7.886-27.672zm2.586 15.795l-3.62 3.297c-1.12 1.021-1.822 3.037-1.556 4.48l.854 4.655c.265 1.443-.652 2.065-2.038 1.384l-4.474-2.198c-1.386-.68-3.653-.68-5.04 0l-4.473 2.198c-1.386.681-2.303.059-2.038-1.384l.854-4.656c.265-1.442-.436-3.458-1.557-4.479l-3.619-3.297c-1.121-1.021-.77-2.03.779-2.24l5.001-.68c1.55-.21 3.384-1.455 4.077-2.767l2.237-4.237c.693-1.311 1.827-1.311 2.52 0l2.236 4.237c.693 1.312 2.527 2.557 4.077 2.768l5.002.68c1.548.21 1.899 1.218.778 2.239z" fill="#C177CD"/></svg>