<svg width="81" height="80" fill="none" xmlns="http://www.w3.org/2000/svg"><path d="M81 15.345c0 12.154-5.368 20.984-5.594 21.352a2.406 2.406 0 01-2.054 1.136c-.427 0-.856-.111-1.245-.344a2.358 2.358 0 01-.812-3.259c.05-.08 4.895-8.118 4.895-18.885 0-6.14-4.046-10.597-9.621-10.597-5.306 0-9.62 4.258-9.62 9.498 0 2.232 1.094 7.902 1.514 9.898.273 1.284-.565 2.54-1.866 2.81-1.301.263-2.575-.557-2.844-1.838-.166-.783-1.621-7.744-1.621-10.87C52.132 6.391 58.607 0 66.569 0 74.794 0 81 6.595 81 15.345zM66.977 19.08c.956 7.889 2.342 23.261.749 24.827l-34.952 34.5c-2.148 2.123-5.638 2.123-7.79-.003L1.615 55.34a5.386 5.386 0 010-7.688L36.57 13.156c.554-.548 6.6-.573 13.399-.223-.038.443-.135.86-.135 1.312 0 1.721.386 4.389.79 6.735a6.447 6.447 0 00-1.129 3.649c0 3.602 2.96 6.524 6.61 6.524 3.65 0 6.611-2.922 6.611-6.524 0-2.22-1.126-4.175-2.841-5.351-.351-2.065-.634-4.058-.634-5.033 0-.21.044-.405.063-.613.838.087 1.662.177 2.443.273 4.62.56 4.666.55 5.23 5.175zm-18.63 25.818c-.543-1.489-1.446-3.275-3.406-5.33l2.653-2.621-2.954-2.913-2.863 2.83c-3.832-2.591-7.783-2.38-10.464.265-2.923 2.885-2.233 6.546-.088 10.802 1.474 2.946 1.743 4.642.599 5.772-1.176 1.16-3.073.656-4.795-1.04-1.956-1.931-3.104-4.317-3.675-6.252l-4.434 2.594c.514 1.752 1.9 4.25 3.857 6.304l-2.891 2.857 2.95 2.915 3.108-3.064c4.099 2.854 8.232 2.47 10.913-.176 2.744-2.714 2.985-5.747.633-10.566-1.63-3.454-2.022-5.15-1.056-6.1.846-.836 2.352-1.074 4.311.86 2.174 2.145 2.895 4.228 3.287 5.33l4.315-2.467z" fill="#C177CD"/></svg>